<svg width="140" height="140" viewBox="0 0 140 140" fill="none" xmlns="http://www.w3.org/2000/svg">
<g id="Vector" opacity="0.8" clip-path="url(#clip0_75_1353)">
<g id="Group">
<g id="Group_2">
<g id="Group_3">
<g id="Group_4">
<path id="Vector_2" d="M62.589 139.853L61.5149 139.728C36.9474 136.787 10.4013 111.203 2.35156 82.6897L2.75857 82.554C5.70939 90.1123 17.1961 95.6114 34.2679 97.6594H34.4149L34.4488 97.8178C40.0565 117.676 49.9604 132.804 61.6393 139.332L62.589 139.864V139.853ZM3.44823 84.8509C12.052 111.871 37.0378 135.734 60.4974 139.163C49.1577 132.328 39.5703 117.438 34.0757 98.0668C18.5528 96.1885 7.62008 91.4362 3.44823 84.8509Z" fill="#11112B"/>
<path id="Vector_3" d="M41.3906 116.68C31.8937 115.548 21.6506 105.67 18.5415 94.6723L18.9598 94.5591C22.0237 105.41 32.1085 115.152 41.4471 116.261L41.4019 116.691L41.3906 116.68Z" fill="#11112B"/>
<path id="Vector_4" d="M50.7176 130.733C32.9223 128.606 13.7024 110.083 7.87988 89.4335L8.2982 89.3203C14.0868 109.812 33.1371 128.199 50.7742 130.303L50.7289 130.733H50.7176Z" fill="#11112B"/>
<path id="Vector_5" d="M37.0041 129.964C31.2947 125.788 30.2093 114.066 34.042 97.8178L34.4603 97.9196C30.6729 113.987 31.7017 125.551 37.2642 129.613L37.0154 129.964H37.0041Z" fill="#11112B"/>
</g>
<g id="Group_5">
<path id="Vector_6" d="M34.5394 98.1234L34.2228 98.0894C16.9814 96.0301 5.37036 90.4292 2.36301 82.7124C-1.98973 67.2901 -0.237324 53.4858 7.1793 44.8073C13.0131 37.9843 21.9899 34.9067 32.4478 36.1626L32.6852 36.1966L32.6287 36.4342C28.1742 55.5678 28.8412 77.9375 34.4489 97.8178L34.5394 98.1234ZM27.9594 36.321C19.5479 36.321 12.3913 39.3648 7.50716 45.0901C0.192297 53.6556 -1.53749 67.3127 2.77002 82.5766C5.69823 90.0671 17.0606 95.5435 33.9515 97.6255C28.4229 77.8356 27.7672 55.6131 32.1652 36.57C30.7406 36.4116 29.3387 36.3324 27.9707 36.3324L27.9594 36.321Z" fill="#11112B"/>
<path id="Vector_7" d="M18.5414 94.661C16.8569 88.698 17.5465 83.346 20.4182 79.9741C22.6907 77.3151 26.1729 76.1157 30.243 76.6023L30.1977 77.0322C26.2746 76.5683 22.9168 77.7111 20.7461 80.257C17.9648 83.5157 17.3091 88.7206 18.9484 94.5365L18.5301 94.6496L18.5414 94.661Z" fill="#11112B"/>
<path id="Vector_8" d="M7.8805 89.4335C4.72617 78.2769 6.00373 68.2745 11.3853 61.9834C15.6137 57.0274 22.1258 54.7984 29.712 55.7149L29.6668 56.1449C22.2276 55.251 15.8511 57.4348 11.7132 62.2663C6.43335 68.4442 5.18971 78.3109 8.29881 89.3316L7.8805 89.4448V89.4335Z" fill="#11112B"/>
<path id="Vector_9" d="M34.1324 98.0442C16.4388 86.1974 4.38683 71.3748 1.07422 57.3782L1.49253 57.2764C4.78253 71.1711 16.7667 85.8919 34.3699 97.6934L34.1324 98.0442Z" fill="#11112B"/>
<path id="Vector_10" d="M34.0758 97.9989C20.5428 79.7365 12.4139 58.8604 11.7808 40.7452H12.2104C12.8435 58.7699 20.9385 79.5442 34.4263 97.7499L34.0871 98.0102L34.0758 97.9989Z" fill="#11112B"/>
</g>
<g id="Group_6">
<path id="Vector_11" d="M49.3613 98.938C44.1041 98.938 39.0165 98.6551 34.2228 98.0781H34.0758L34.0419 97.9197C28.4116 77.9714 27.7446 55.5225 32.2217 36.321L32.2669 36.1287L32.4591 36.1513C57.0267 39.0932 83.5727 64.6763 91.6225 93.19L91.679 93.405L91.4642 93.4616C77.6372 97.0597 62.9396 98.938 49.3726 98.938H49.3613ZM34.415 97.6707C51.4529 99.6848 72.1086 98.0215 91.1363 93.0995C83.0753 64.9026 56.891 39.625 32.5948 36.6039C28.1968 55.647 28.8638 77.8922 34.415 97.6707Z" fill="#11112B"/>
<path id="Vector_12" d="M52.685 98.7456C49.6212 87.8946 39.5364 78.1524 30.1978 77.0436L30.243 76.6136C39.7399 77.7451 49.9829 87.623 53.092 98.6325L52.6737 98.7456H52.685Z" fill="#11112B"/>
<path id="Vector_13" d="M72.1425 97.1163C66.3539 76.6249 47.3036 58.2381 29.6665 56.1335L29.7117 55.7036C47.5071 57.8308 66.727 76.3534 72.5495 97.0032L72.1312 97.1163H72.1425Z" fill="#11112B"/>
<path id="Vector_14" d="M34.4603 97.9197L34.042 97.8178C37.8521 81.6374 46.094 62.7415 56.6536 45.984L57.0154 46.2103C46.4784 62.9338 38.2591 81.7845 34.4603 97.9197Z" fill="#11112B"/>
</g>
<g id="Group_7">
<path id="Vector_15" d="M66.0037 140C64.5452 140 63.0415 139.909 61.5153 139.728L61.4361 139.706C49.6668 133.132 39.6837 117.902 34.0421 97.931L33.9517 97.6255L34.2682 97.6594C51.3965 99.7074 72.1993 98.0328 91.34 93.0543L91.5435 92.9977L91.6 93.2014C95.9415 108.601 94.1891 122.405 86.7725 131.084C81.7979 136.911 74.5283 140 65.9924 140H66.0037ZM61.6057 139.31C71.9053 140.521 80.7352 137.511 86.4559 130.801C93.7369 122.269 95.4893 108.692 91.2496 93.5182C72.2332 98.4402 51.6 100.115 34.5396 98.1234C40.1586 117.811 50.0059 132.804 61.6057 139.31Z" fill="#11112B"/>
<path id="Vector_16" d="M43.1322 116.782C42.5669 116.782 41.979 116.748 41.3911 116.68L41.4363 116.25C45.3482 116.714 48.7173 115.571 50.888 113.025C53.6692 109.766 54.325 104.562 52.6856 98.7457L53.1039 98.6325C54.7885 104.595 54.0989 109.947 51.2272 113.308C49.2939 115.582 46.4561 116.782 43.1435 116.782H43.1322Z" fill="#11112B"/>
<path id="Vector_17" d="M53.9743 130.925C52.9116 130.925 51.8262 130.858 50.7183 130.733L50.7635 130.303C58.214 131.197 64.5792 129.013 68.7171 124.182C73.9969 118.004 75.2406 108.137 72.1315 97.1276L72.5498 97.0145C75.7041 108.171 74.4266 118.173 69.045 124.465C65.4271 128.696 60.1586 130.937 53.963 130.937L53.9743 130.925Z" fill="#11112B"/>
<path id="Vector_18" d="M92.6739 118.773C73.1487 117.449 51.8146 109.891 34.1323 98.0441L34.3697 97.6934C51.9842 109.495 73.2505 117.019 92.7078 118.343L92.6739 118.773Z" fill="#11112B"/>
<path id="Vector_19" d="M81.9111 135.361C65.0541 129.884 47.6205 116.261 34.0762 97.9989L34.4153 97.7386C47.9032 115.933 65.2576 129.5 82.0355 134.942L81.8998 135.35L81.9111 135.361Z" fill="#11112B"/>
</g>
</g>
<path id="Vector_20" d="M66.0035 140C64.8729 140 63.731 139.943 62.5552 139.842L62.5891 139.864L61.4699 139.728C52.6061 138.665 43.1996 134.625 34.2567 128.04C32.1086 126.377 29.4065 124.17 27.5298 122.541C26.6931 121.828 25.7095 120.855 24.8503 119.995C24.579 119.724 24.3189 119.475 24.0815 119.237C22.0351 117.257 18.9373 113.67 17.2415 111.498C15.9752 109.88 14.3246 107.537 12.1765 104.335C11.566 103.419 10.8763 102.231 10.2658 101.167L9.89269 100.533C9.20304 99.3567 8.32118 97.6934 7.69936 96.4035C6.87404 94.7062 5.8226 92.364 5.07641 90.5876C4.01366 87.9738 3.09789 85.3148 2.36301 82.7011C-1.98973 67.2901 -0.237324 53.4858 7.1793 44.8073C13.0131 37.9843 21.9899 34.9067 32.4478 36.1626C57.0154 39.1045 83.5614 64.6876 91.6112 93.2013C95.9526 108.601 94.2002 122.405 86.7836 131.084C81.809 136.911 74.5394 140 66.0035 140ZM61.6055 139.31C71.9051 140.521 80.735 137.511 86.4557 130.801C93.7706 122.236 95.5004 108.567 91.1929 93.3145C83.1883 64.9592 56.8119 39.5119 32.3913 36.5926C22.0691 35.3593 13.2279 38.3804 7.49586 45.0901C0.192297 53.6556 -1.53749 67.3127 2.77002 82.5766C3.5049 85.179 4.40937 87.8154 5.47212 90.4179C6.2183 92.1943 7.26974 94.5252 8.08376 96.2111C8.70558 97.4897 9.57613 99.1417 10.2658 100.318L10.6389 100.952C11.2494 102.004 11.9277 103.192 12.5383 104.098C14.6751 107.288 16.3257 109.619 17.5807 111.237C19.2652 113.41 22.3517 116.963 24.3868 118.943C24.6355 119.18 24.8955 119.441 25.1669 119.701C26.0261 120.55 27.0097 121.511 27.835 122.224C29.7118 123.842 32.4026 126.049 34.5394 127.701C43.0753 133.98 52.0295 137.929 60.5202 139.163C49.1578 132.317 39.5479 117.37 34.0645 97.931L34.4829 97.8178C40.0792 117.653 49.9831 132.781 61.6394 139.31H61.6055Z" fill="#11112B"/>
</g>
<g id="Group_8">
<g id="Group_9">
<path id="Vector_21" d="M62.589 139.853L61.5149 139.728C36.9474 136.787 10.4013 111.203 2.35156 82.6897L2.75857 82.554C5.70939 90.1123 17.1961 95.6114 34.2679 97.6594H34.4149L34.4488 97.8178C40.0565 117.676 49.9604 132.804 61.6393 139.332L62.589 139.864V139.853ZM3.44823 84.8509C12.052 111.871 37.0378 135.734 60.4974 139.163C49.1577 132.328 39.5703 117.438 34.0757 98.0668C18.5528 96.1885 7.62008 91.4362 3.44823 84.8509Z" fill="#11112B"/>
<path id="Vector_22" d="M16.0202 109.732C15.9298 109.732 15.8846 109.699 15.8506 109.676C15.8167 109.642 15.6924 109.529 15.7715 109.314L16.1785 109.461C16.1785 109.461 16.1785 109.404 16.1446 109.359C16.1107 109.314 16.0655 109.303 16.0541 109.303C16.3594 109.303 18.5866 108.431 34.1208 97.6934L34.3583 98.0441C19.1406 108.567 16.5855 109.732 16.0089 109.732H16.0202Z" fill="#11112B"/>
</g>
<path id="Vector_23" d="M34.2679 128.04C34.1096 127.927 33.9626 127.814 33.8043 127.701C32.7529 126.92 31.4414 125.924 30.4804 125.098C30.3221 124.962 30.1526 124.815 29.9717 124.668C29.6664 124.408 29.3612 124.148 29.0672 123.887C28.4002 123.31 27.6879 122.699 27.1226 122.19C26.3651 121.5 25.4493 120.606 24.6466 119.814L23.9909 119.169C21.2662 116.521 18.338 112.878 17.2413 111.509C15.602 109.472 14.9462 108.488 12.1763 104.347C11.5432 103.396 10.8422 102.185 10.2204 101.11L9.79077 100.364C8.82978 98.7117 7.73312 96.4713 6.87387 94.7175C6.67037 94.2876 6.45556 93.8123 6.22944 93.3032C5.82243 92.398 5.43803 91.4928 5.06494 90.5876L5.46065 90.4178C5.63023 90.8139 5.82243 91.2552 6.01463 91.7078C6.21814 92.183 6.42164 92.6695 6.62514 93.1334C11.758 104.528 19.7851 115.254 29.3272 123.548C29.4968 123.695 29.6664 123.842 29.8247 123.978C29.9717 124.102 30.1073 124.227 30.243 124.34C31.4866 125.392 32.7529 126.388 34.0305 127.361C34.1887 127.486 34.347 127.599 34.494 127.701L34.2453 128.051L34.2679 128.04Z" fill="#11112B"/>
</g>
<g id="Group_10">
<g id="Group_11">
<g id="Group_12">
<path id="Vector_24" d="M2.40824 82.8708L2.36301 82.6898C-1.98973 67.2901 -0.237324 53.4858 7.1793 44.8073C13.0131 37.9843 21.9899 34.9067 32.4478 36.1626H32.5383L32.5948 36.2418C38.1007 43.2232 44.2059 47.0703 50.1979 47.6247C53.1714 44.4678 57.5693 43.0648 62.6683 43.6758L63.1883 43.7323L62.7813 44.0492C58.8808 47.0929 54.6637 48.4054 50.3675 48.066C50.2771 48.1565 50.1979 48.2583 50.1075 48.3602C46.4218 52.6712 45.5626 59.5507 47.7333 67.2448L47.7785 67.3806L47.6654 67.4711C38.2251 74.8259 21.3794 80.5739 2.61174 82.8368L2.43085 82.8595L2.40824 82.8708ZM27.9707 36.321C19.5592 36.321 12.4026 39.3648 7.51847 45.0901C0.214909 53.6216 -1.52619 67.2109 2.7135 82.3956C21.2663 80.1326 37.8859 74.4751 47.2584 67.2335C45.099 59.4601 46.0035 52.4901 49.757 48.0886C49.7796 48.066 49.7909 48.0433 49.8136 48.0207C43.8441 47.3531 37.7842 43.4834 32.3008 36.57C30.8198 36.4002 29.3726 36.3097 27.9594 36.3097L27.9707 36.321ZM50.7519 47.67C54.6411 47.8963 58.4964 46.7082 62.0691 44.0492C57.4789 43.6192 53.5106 44.8978 50.7519 47.67Z" fill="#11112B"/>
<path id="Vector_25" d="M19.8419 79.4423C16.6197 68.0255 17.9199 57.7855 23.4258 51.3473C27.756 46.2782 34.4151 44.0039 42.1822 44.9317L42.137 45.3617C34.5169 44.4452 27.9934 46.6742 23.7537 51.6302C18.3495 57.9552 17.072 68.0595 20.2602 79.3292L19.8419 79.4423Z" fill="#11112B"/>
<path id="Vector_26" d="M35.3308 74.2262C32.8549 65.4458 33.8611 57.5592 38.0895 52.6033C41.4247 48.6996 46.5462 46.9458 52.5383 47.6586L52.4931 48.0886C46.6593 47.3984 41.6621 49.0957 38.4286 52.8862C34.2907 57.729 33.3184 65.4684 35.7492 74.113L35.3308 74.2262Z" fill="#11112B"/>
<path id="Vector_27" d="M38.6659 50.6684C30.7179 50.6684 21.4245 47.3645 11.8711 40.9036L12.1085 40.5529C27.8462 51.1889 42.8151 53.203 52.1537 45.9275L52.4138 46.2669C48.6263 49.2201 43.9457 50.6684 38.6659 50.6684Z" fill="#11112B"/>
</g>
<g id="Group_13">
<path id="Vector_28" d="M91.7582 93.7331L91.2834 93.4276C87.3037 90.9044 85.1217 87.8041 84.9521 84.4549C84.8843 82.95 85.2235 81.4111 85.947 79.861C79.367 66.6564 69.1466 54.9228 57.7051 46.9684C49.3727 50.2271 40.1811 46.5611 32.2444 36.5021L31.9165 36.0947L32.4366 36.1513C40.9159 37.1696 49.6327 40.881 57.7503 46.4819C59.367 45.8256 60.9499 44.9091 62.4874 43.7097L62.5553 43.6531H62.6457C75.1274 45.158 88.6039 58.1476 92.6853 72.6194L92.7305 72.7552L92.6175 72.8457C89.6666 75.154 87.5751 77.5188 86.4219 79.8497C88.5587 84.1607 90.3111 88.6301 91.5999 93.1787L91.7469 93.7218L91.7582 93.7331ZM86.2071 80.3588C85.6079 81.7393 85.3252 83.1084 85.393 84.4435C85.54 87.4986 87.4846 90.3726 91.046 92.76C89.8136 88.5396 88.1856 84.387 86.2184 80.3702L86.2071 80.3588ZM58.1912 46.776C69.5197 54.7192 79.6271 66.3283 86.2071 79.3858C87.3942 77.1115 89.4292 74.8258 92.2557 72.6081C88.1743 58.3739 74.9578 45.6332 62.7023 44.117C61.2438 45.2485 59.7288 46.1424 58.1912 46.7874V46.776ZM32.9227 36.6378C40.5655 46.1085 49.3275 49.6048 57.2868 46.6629C49.4744 41.3109 41.0968 37.7241 32.9227 36.6378Z" fill="#11112B"/>
<path id="Vector_29" d="M85.6077 87.3063C79.6834 66.3283 60.1809 47.5115 42.1255 45.3504L42.1707 44.9204C60.3844 47.0929 80.0452 66.0568 86.0147 87.1818L85.5964 87.2949L85.6077 87.3063Z" fill="#11112B"/>
<path id="Vector_30" d="M85.834 80.2683C81.2891 64.1785 66.3315 49.7406 52.4932 48.0886L52.5384 47.6586C66.535 49.3332 81.6622 63.9069 86.241 80.1439L85.8227 80.257L85.834 80.2683Z" fill="#11112B"/>
<path id="Vector_31" d="M64.251 53.8592C63.3804 53.8592 62.5664 53.7234 61.8202 53.4519C59.2651 52.524 57.4675 49.9895 56.6309 46.1424L57.0492 46.0519C57.8519 49.7519 59.5591 52.1733 61.9672 53.0558C65.2007 54.2326 69.6665 52.7051 74.8672 48.6543L75.1272 48.9938C70.9893 52.2185 67.2809 53.8705 64.251 53.8705V53.8592Z" fill="#11112B"/>
</g>
<g id="Group_14">
<path id="Vector_32" d="M66.0039 140C64.5454 140 63.0417 139.91 61.5154 139.728L61.3232 139.706V139.513C61.832 119.61 67.7902 103.317 77.2418 95.9509L77.3097 95.8943H77.4001C82.3295 96.494 86.5804 95.1588 89.4634 92.1378C86.6483 89.8748 85.0994 87.261 84.9637 84.4662C84.7715 80.5739 87.3379 76.4439 92.369 72.5176L92.6178 72.3253L92.7082 72.6308C94.9241 80.4607 94.0197 87.4873 90.2435 91.9115C90.1983 91.968 90.1418 92.0246 90.0966 92.0812C90.5375 92.4206 91.0236 92.7488 91.5211 93.0769L91.5889 93.1222L91.6115 93.2014C95.953 108.601 94.2006 122.405 86.784 131.084C81.8094 136.911 74.5397 140 66.0039 140ZM61.7642 139.321C71.9959 140.487 80.7693 137.477 86.4674 130.801C93.771 122.247 95.5007 108.612 91.2271 93.3937C90.7297 93.0769 90.2548 92.7374 89.8026 92.398C86.8405 95.5209 82.4877 96.9127 77.4453 96.3356C68.152 103.634 62.3068 119.678 61.7642 139.321ZM92.3803 73.0607C87.6319 76.8286 85.2237 80.7662 85.3933 84.4436C85.5177 87.1139 87.0214 89.6258 89.7574 91.8096C89.8139 91.753 89.8704 91.6852 89.9157 91.6286C93.5448 87.3742 94.438 80.6191 92.3803 73.0494V73.0607Z" fill="#11112B"/>
<path id="Vector_33" d="M67.01 121.896C65.9247 121.896 64.8167 121.828 63.6748 121.692L63.72 121.262C71.3402 122.168 77.8636 119.939 82.1033 114.994C87.5075 108.669 88.785 98.576 85.5968 87.295L86.0151 87.1818C89.2373 98.5986 87.9371 108.839 82.4312 115.277C78.7342 119.61 73.3413 121.896 67.01 121.896Z" fill="#11112B"/>
<path id="Vector_34" d="M71.6001 106.87C70.7635 106.87 69.9042 106.813 69.0337 106.711L69.0789 106.281C74.9127 106.983 79.9099 105.274 83.1434 101.484C87.2813 96.6411 88.2536 88.9017 85.8228 80.2571L86.2412 80.1439C88.7171 88.9243 87.7109 96.8109 83.4825 101.767C80.6335 105.105 76.4729 106.87 71.6001 106.87Z" fill="#11112B"/>
<path id="Vector_35" d="M92.5049 118.683C83.3133 105.218 83.4942 92.7488 93.0137 85.3375L93.2737 85.6769C83.969 92.9298 83.8107 105.184 92.8554 118.445L92.5049 118.683Z" fill="#11112B"/>
</g>
<g id="Group_15">
<path id="Vector_36" d="M47.3943 67.6748L47.3039 67.3693C45.0993 59.5393 45.9924 52.5127 49.7686 48.0886C49.8138 48.032 49.8703 47.9754 49.9155 47.9188C49.4746 47.5794 48.9885 47.2513 48.491 46.9231L48.4232 46.8779L48.4006 46.7987C44.0591 31.399 45.8115 17.5947 53.2281 8.91617C59.0506 2.09325 68.0275 -0.973101 78.4853 0.282859L78.6775 0.305489V0.497844C78.1688 20.4009 72.2106 36.6944 62.7589 44.0604L62.6911 44.117H62.6007C57.6713 43.5173 53.4203 44.8525 50.5374 47.8736C53.3525 50.1366 54.9014 52.7503 55.0371 55.5451C55.2293 59.4375 52.6629 63.5674 47.6318 67.4937L47.383 67.6861L47.3943 67.6748ZM50.2547 48.1791C50.1982 48.2357 50.153 48.3036 50.0964 48.3601C46.4673 52.6146 45.5741 59.3696 47.6318 66.9393C52.3802 63.1714 54.7883 59.2338 54.6188 55.5564C54.4944 52.8861 52.9907 50.3742 50.2547 48.1904V48.1791ZM48.785 46.6063C49.2824 46.9231 49.7573 47.2626 50.2095 47.602C53.1716 44.4791 57.5244 43.0874 62.5668 43.6644C71.8601 36.3663 77.7052 20.3217 78.2479 0.678883C68.0162 -0.497873 59.2428 2.52322 53.5447 9.19905C46.2411 17.7532 44.5114 31.3877 48.785 46.6063Z" fill="#11112B"/>
<path id="Vector_37" d="M52.4143 46.2668L52.1543 45.9274C61.4929 38.6519 63.6071 23.3201 57.8298 4.91066L58.2368 4.78619C64.0706 23.3654 61.8999 38.8782 52.4143 46.2668Z" fill="#11112B"/>
</g>
<g id="Group_16">
<path id="Vector_38" d="M92.3801 73.0607L92.2896 72.7552C88.2422 58.4305 74.9352 45.588 62.6119 44.1057L62.0918 44.0491L62.4988 43.7323C71.86 36.4342 77.7504 20.2764 78.2478 0.497868V0.260254L78.4852 0.282884C103.053 3.22477 129.599 28.8079 137.649 57.3216L137.716 57.5592L137.468 57.5932C118.768 59.8448 102.001 65.5589 92.6288 72.8683L92.3801 73.0607ZM63.1659 43.7436C75.4101 45.5088 88.4909 58.1702 92.6175 72.3252C102.058 65.095 118.666 59.4488 137.174 57.1858C129.113 29.0116 102.951 3.77921 78.6774 0.735482C78.1348 20.2538 72.3575 36.2645 63.1659 43.7436Z" fill="#11112B"/>
<path id="Vector_39" d="M75.116 48.9825L74.856 48.643C84.2398 41.3336 94.6411 26.9296 102.68 10.1156L103.064 10.2966C95.0029 27.1559 84.5564 41.6164 75.116 48.9712V48.9825Z" fill="#11112B"/>
<path id="Vector_40" d="M85.8342 59.313L85.5742 58.9736C94.9807 51.6415 109.316 40.9715 123.912 30.4373L124.161 30.788C109.576 41.3109 95.252 51.9809 85.8342 59.313Z" fill="#11112B"/>
</g>
<g id="Group_17">
<path id="Vector_41" d="M112.041 104.12C110.582 104.12 109.079 104.03 107.553 103.849H107.462L107.406 103.769C101.9 96.7995 95.7945 92.9411 89.8024 92.3866C86.829 95.5435 82.431 96.9352 77.3321 96.3356L76.812 96.279L77.219 95.9622C81.1195 92.9184 85.3479 91.6059 89.6328 91.9454C89.7233 91.8548 89.8024 91.753 89.8928 91.6512C93.5785 87.3402 94.4378 80.4607 92.2671 72.7665L92.2218 72.6307L92.3349 72.5402C101.775 65.1855 118.621 59.4375 137.389 57.1745L137.569 57.1519L137.615 57.3329C141.956 72.7326 140.204 86.5368 132.787 95.2154C127.813 101.043 120.543 104.132 112.007 104.132L112.041 104.12ZM107.688 103.43C117.965 104.641 126.772 101.62 132.493 94.9212C139.785 86.3897 141.527 72.8004 137.276 57.6158C118.723 59.8788 102.103 65.5362 92.7306 72.7778C94.89 80.5512 93.9855 87.5212 90.232 91.9227C90.2094 91.9454 90.1981 91.968 90.1755 91.9793C96.145 92.6469 102.205 96.5166 107.688 103.43ZM77.9313 95.9622C82.5214 96.3808 86.4898 95.1135 89.2484 92.3414C85.3479 92.1038 81.5039 93.3031 77.9313 95.9622Z" fill="#11112B"/>
<path id="Vector_42" d="M93.2732 85.6769L93.0132 85.3374C102.476 77.9601 119.582 76.8851 138.79 82.4747L138.666 82.8934C119.593 77.349 102.634 78.39 93.2732 85.6882V85.6769Z" fill="#11112B"/>
</g>
</g>
<path id="Vector_43" d="M86.6707 95.7585L86.2637 95.6228C86.4333 94.9891 86.4898 93.9821 86.422 92.6356C86.3541 91.2891 86.1619 90.3047 85.9132 88.9583C85.7549 88.0983 85.4949 87.0573 85.2688 86.3332C84.76 84.6812 84.0817 82.7463 83.5616 81.3885C83.392 80.9473 81.8092 77.2812 80.6221 75.2445C79.6498 73.5699 78.2252 71.273 77.0834 69.5305C76.5294 68.6818 75.7267 67.6182 75.0144 66.7017C74.0986 65.5023 73.3864 64.6311 72.855 64.0314C70.9443 61.8929 69.4067 60.2522 68.2761 59.1433C67.6317 58.5097 66.7046 57.6384 65.9584 57.0161L65.2914 56.4617C64.7374 55.9978 64.1382 55.4886 63.6294 55.0926C63.132 54.6966 62.4762 54.2213 61.8996 53.7914L61.3457 53.384C61.3457 53.384 58.5192 51.3021 54.9013 49.6275C54.0082 49.2201 51.7244 48.2244 49.712 47.9868C49.3728 47.9415 49.2258 47.9415 49.0788 47.9528L49.0449 47.5229C49.3276 47.4889 50.3451 47.3079 51.5887 46.3348C54.483 44.0831 58.3044 43.1666 62.6345 43.6758C75.1161 45.1694 88.5927 58.1589 92.6741 72.6308C95.2405 81.7054 93.6238 89.5693 88.3666 93.6653C87.9256 94.0387 87.6656 94.2537 87.3377 94.661C86.8855 95.2041 86.7159 95.5775 86.6481 95.7585H86.6707ZM50.2433 47.6247C52.1879 47.9528 54.2569 48.8467 55.0935 49.2314C58.7453 50.9287 61.5831 53.0219 61.6057 53.0446L62.1597 53.4519C62.7363 53.8819 63.392 54.3571 63.9008 54.7531C64.4095 55.1492 65.0087 55.6583 65.574 56.1336L66.2298 56.688C66.9873 57.3216 67.9256 58.2042 68.5701 58.8378C69.7007 59.9467 71.2496 61.5987 73.1715 63.7372C73.7142 64.3482 74.4265 65.2308 75.3536 66.4415C76.0658 67.3693 76.8685 68.4329 77.4338 69.3042C78.587 71.058 80.0116 73.3662 80.9839 75.0409C82.1936 77.1341 83.7764 80.7775 83.946 81.2528C84.4661 82.6106 85.1444 84.5567 85.6645 86.22C85.8906 86.9555 86.1506 88.0191 86.3089 88.8677C86.5689 90.2595 86.7611 91.2552 86.829 92.6356C86.8742 93.405 86.8742 94.0839 86.829 94.6384C86.8855 94.5592 86.942 94.48 87.0099 94.4007C87.3717 93.9595 87.6543 93.7219 88.0839 93.3598C93.2168 89.3543 94.777 81.6601 92.2558 72.7552C88.2083 58.4305 74.9013 45.588 62.578 44.1058C58.3609 43.5966 54.6413 44.4905 51.8375 46.6743C51.2269 47.1382 50.673 47.4437 50.2094 47.6247H50.2433Z" fill="#11112B"/>
</g>
<g id="Group_18">
<g id="Group_19">
<g id="Group_20">
<path id="Vector_44" d="M2.40824 82.8708L2.36301 82.6898C-1.98973 67.2901 -0.237324 53.4858 7.1793 44.8073C13.0131 37.9843 21.9899 34.9067 32.4478 36.1626H32.5383L32.5948 36.2418C38.1007 43.2232 44.2059 47.0703 50.1979 47.6247C53.1714 44.4678 57.5693 43.0648 62.6683 43.6758L63.1883 43.7323L62.7813 44.0492C58.8808 47.0929 54.6637 48.4054 50.3675 48.066C50.2771 48.1565 50.1979 48.2583 50.1075 48.3602C46.4218 52.6712 45.5626 59.5507 47.7333 67.2448L47.7785 67.3806L47.6654 67.4711C38.2251 74.8259 21.3794 80.5739 2.61174 82.8368L2.43085 82.8595L2.40824 82.8708ZM27.9707 36.321C19.5592 36.321 12.4026 39.3648 7.51847 45.0901C0.214909 53.6216 -1.52619 67.2109 2.7135 82.3956C21.2663 80.1326 37.8859 74.4751 47.2584 67.2335C45.099 59.4601 46.0035 52.4901 49.757 48.0886C49.7796 48.066 49.7909 48.0433 49.8136 48.0207C43.8441 47.3531 37.7842 43.4834 32.3008 36.57C30.8198 36.4002 29.3726 36.3097 27.9594 36.3097L27.9707 36.321ZM50.7519 47.67C54.6411 47.8963 58.4964 46.7082 62.0691 44.0492C57.4789 43.6192 53.5106 44.8978 50.7519 47.67Z" fill="#11112B"/>
<path id="Vector_45" d="M19.8419 79.4423C16.6197 68.0255 17.9199 57.7855 23.4258 51.3473C27.756 46.2782 34.4151 44.0039 42.1822 44.9317L42.137 45.3617C34.5169 44.4452 27.9934 46.6742 23.7537 51.6302C18.3495 57.9552 17.072 68.0595 20.2602 79.3292L19.8419 79.4423Z" fill="#11112B"/>
<path id="Vector_46" d="M35.3308 74.2262C32.8549 65.4458 33.8611 57.5592 38.0895 52.6033C41.4247 48.6996 46.5462 46.9458 52.5383 47.6586L52.4931 48.0886C46.6593 47.3984 41.6621 49.0957 38.4286 52.8862C34.2907 57.729 33.3184 65.4684 35.7492 74.113L35.3308 74.2262Z" fill="#11112B"/>
<path id="Vector_47" d="M38.6659 50.6684C30.7179 50.6684 21.4245 47.3645 11.8711 40.9036L12.1085 40.5529C27.8462 51.1889 42.8151 53.203 52.1537 45.9275L52.4138 46.2669C48.6263 49.2201 43.9457 50.6684 38.6659 50.6684Z" fill="#11112B"/>
</g>
<g id="Group_21">
<path id="Vector_48" d="M91.7582 93.7331L91.2834 93.4276C87.3037 90.9044 85.1217 87.8041 84.9521 84.4549C84.8843 82.95 85.2235 81.4111 85.947 79.861C79.367 66.6564 69.1466 54.9228 57.7051 46.9684C49.3727 50.2271 40.1811 46.5611 32.2444 36.5021L31.9165 36.0947L32.4366 36.1513C40.9159 37.1696 49.6327 40.881 57.7503 46.4819C59.367 45.8256 60.9499 44.9091 62.4874 43.7097L62.5553 43.6531H62.6457C75.1274 45.158 88.6039 58.1476 92.6853 72.6194L92.7305 72.7552L92.6175 72.8457C89.6666 75.154 87.5751 77.5188 86.4219 79.8497C88.5587 84.1607 90.3111 88.6301 91.5999 93.1787L91.7469 93.7218L91.7582 93.7331ZM86.2071 80.3588C85.6079 81.7393 85.3252 83.1084 85.393 84.4435C85.54 87.4986 87.4846 90.3726 91.046 92.76C89.8136 88.5396 88.1856 84.387 86.2184 80.3702L86.2071 80.3588ZM58.1912 46.776C69.5197 54.7192 79.6271 66.3283 86.2071 79.3858C87.3942 77.1115 89.4292 74.8258 92.2557 72.6081C88.1743 58.3739 74.9578 45.6332 62.7023 44.117C61.2438 45.2485 59.7288 46.1424 58.1912 46.7874V46.776ZM32.9227 36.6378C40.5655 46.1085 49.3275 49.6048 57.2868 46.6629C49.4744 41.3109 41.0968 37.7241 32.9227 36.6378Z" fill="#11112B"/>
<path id="Vector_49" d="M85.6077 87.3063C79.6834 66.3283 60.1809 47.5115 42.1255 45.3504L42.1707 44.9204C60.3844 47.0929 80.0452 66.0568 86.0147 87.1818L85.5964 87.2949L85.6077 87.3063Z" fill="#11112B"/>
<path id="Vector_50" d="M85.834 80.2683C81.2891 64.1785 66.3315 49.7406 52.4932 48.0886L52.5384 47.6586C66.535 49.3332 81.6622 63.9069 86.241 80.1439L85.8227 80.257L85.834 80.2683Z" fill="#11112B"/>
<path id="Vector_51" d="M64.251 53.8592C63.3804 53.8592 62.5664 53.7234 61.8202 53.4519C59.2651 52.524 57.4675 49.9895 56.6309 46.1424L57.0492 46.0519C57.8519 49.7519 59.5591 52.1733 61.9672 53.0558C65.2007 54.2326 69.6665 52.7051 74.8672 48.6543L75.1272 48.9938C70.9893 52.2185 67.2809 53.8705 64.251 53.8705V53.8592Z" fill="#11112B"/>
</g>
<g id="Group_22">
<path id="Vector_52" d="M66.0039 140C64.5454 140 63.0417 139.91 61.5154 139.728L61.3232 139.706V139.513C61.832 119.61 67.7902 103.317 77.2418 95.9509L77.3097 95.8943H77.4001C82.3295 96.494 86.5804 95.1588 89.4634 92.1378C86.6483 89.8748 85.0994 87.261 84.9637 84.4662C84.7715 80.5739 87.3379 76.4439 92.369 72.5176L92.6178 72.3253L92.7082 72.6308C94.9241 80.4607 94.0197 87.4873 90.2435 91.9115C90.1983 91.968 90.1418 92.0246 90.0966 92.0812C90.5375 92.4206 91.0236 92.7488 91.5211 93.0769L91.5889 93.1222L91.6115 93.2014C95.953 108.601 94.2006 122.405 86.784 131.084C81.8094 136.911 74.5397 140 66.0039 140ZM61.7642 139.321C71.9959 140.487 80.7693 137.477 86.4674 130.801C93.771 122.247 95.5007 108.612 91.2271 93.3937C90.7297 93.0769 90.2548 92.7374 89.8026 92.398C86.8405 95.5209 82.4877 96.9127 77.4453 96.3356C68.152 103.634 62.3068 119.678 61.7642 139.321ZM92.3803 73.0607C87.6319 76.8286 85.2237 80.7662 85.3933 84.4436C85.5177 87.1139 87.0214 89.6258 89.7574 91.8096C89.8139 91.753 89.8704 91.6852 89.9157 91.6286C93.5448 87.3742 94.438 80.6191 92.3803 73.0494V73.0607Z" fill="#11112B"/>
<path id="Vector_53" d="M67.01 121.896C65.9247 121.896 64.8167 121.828 63.6748 121.692L63.72 121.262C71.3402 122.168 77.8636 119.939 82.1033 114.994C87.5075 108.669 88.785 98.576 85.5968 87.295L86.0151 87.1818C89.2373 98.5986 87.9371 108.839 82.4312 115.277C78.7342 119.61 73.3413 121.896 67.01 121.896Z" fill="#11112B"/>
<path id="Vector_54" d="M71.6001 106.87C70.7635 106.87 69.9042 106.813 69.0337 106.711L69.0789 106.281C74.9127 106.983 79.9099 105.274 83.1434 101.484C87.2813 96.6411 88.2536 88.9017 85.8228 80.2571L86.2412 80.1439C88.7171 88.9243 87.7109 96.8109 83.4825 101.767C80.6335 105.105 76.4729 106.87 71.6001 106.87Z" fill="#11112B"/>
<path id="Vector_55" d="M92.5049 118.683C83.3133 105.218 83.4942 92.7488 93.0137 85.3375L93.2737 85.6769C83.969 92.9298 83.8107 105.184 92.8554 118.445L92.5049 118.683Z" fill="#11112B"/>
</g>
<g id="Group_23">
<path id="Vector_56" d="M47.3943 67.6748L47.3039 67.3693C45.0993 59.5393 45.9924 52.5127 49.7686 48.0886C49.8138 48.032 49.8703 47.9754 49.9155 47.9188C49.4746 47.5794 48.9885 47.2513 48.491 46.9231L48.4232 46.8779L48.4006 46.7987C44.0591 31.399 45.8115 17.5947 53.2281 8.91617C59.0506 2.09325 68.0275 -0.973101 78.4853 0.282859L78.6775 0.305489V0.497844C78.1688 20.4009 72.2106 36.6944 62.7589 44.0604L62.6911 44.117H62.6007C57.6713 43.5173 53.4203 44.8525 50.5374 47.8736C53.3525 50.1366 54.9014 52.7503 55.0371 55.5451C55.2293 59.4375 52.6629 63.5674 47.6318 67.4937L47.383 67.6861L47.3943 67.6748ZM50.2547 48.1791C50.1982 48.2357 50.153 48.3036 50.0964 48.3601C46.4673 52.6146 45.5741 59.3696 47.6318 66.9393C52.3802 63.1714 54.7883 59.2338 54.6188 55.5564C54.4944 52.8861 52.9907 50.3742 50.2547 48.1904V48.1791ZM48.785 46.6063C49.2824 46.9231 49.7573 47.2626 50.2095 47.602C53.1716 44.4791 57.5244 43.0874 62.5668 43.6644C71.8601 36.3663 77.7052 20.3217 78.2479 0.678883C68.0162 -0.497873 59.2428 2.52322 53.5447 9.19905C46.2411 17.7532 44.5114 31.3877 48.785 46.6063Z" fill="#11112B"/>
<path id="Vector_57" d="M52.4143 46.2668L52.1543 45.9274C61.4929 38.6519 63.6071 23.3201 57.8298 4.91066L58.2368 4.78619C64.0706 23.3654 61.8999 38.8782 52.4143 46.2668Z" fill="#11112B"/>
</g>
<g id="Group_24">
<path id="Vector_58" d="M92.3801 73.0607L92.2896 72.7552C88.2422 58.4305 74.9352 45.588 62.6119 44.1057L62.0918 44.0491L62.4988 43.7323C71.86 36.4342 77.7504 20.2764 78.2478 0.497868V0.260254L78.4852 0.282884C103.053 3.22477 129.599 28.8079 137.649 57.3216L137.716 57.5592L137.468 57.5932C118.768 59.8448 102.001 65.5589 92.6288 72.8683L92.3801 73.0607ZM63.1659 43.7436C75.4101 45.5088 88.4909 58.1702 92.6175 72.3252C102.058 65.095 118.666 59.4488 137.174 57.1858C129.113 29.0116 102.951 3.77921 78.6774 0.735482C78.1348 20.2538 72.3575 36.2645 63.1659 43.7436Z" fill="#11112B"/>
<path id="Vector_59" d="M75.116 48.9825L74.856 48.643C84.2398 41.3336 94.6411 26.9296 102.68 10.1156L103.064 10.2966C95.0029 27.1559 84.5564 41.6164 75.116 48.9712V48.9825Z" fill="#11112B"/>
<path id="Vector_60" d="M85.8342 59.313L85.5742 58.9736C94.9807 51.6415 109.316 40.9715 123.912 30.4373L124.161 30.788C109.576 41.3109 95.252 51.9809 85.8342 59.313Z" fill="#11112B"/>
</g>
<g id="Group_25">
<path id="Vector_61" d="M112.041 104.12C110.582 104.12 109.079 104.03 107.553 103.849H107.462L107.406 103.769C101.9 96.7995 95.7945 92.9411 89.8024 92.3866C86.829 95.5435 82.431 96.9352 77.3321 96.3356L76.812 96.279L77.219 95.9622C81.1195 92.9184 85.3479 91.6059 89.6328 91.9454C89.7233 91.8548 89.8024 91.753 89.8928 91.6512C93.5785 87.3402 94.4378 80.4607 92.2671 72.7665L92.2218 72.6307L92.3349 72.5402C101.775 65.1855 118.621 59.4375 137.389 57.1745L137.569 57.1519L137.615 57.3329C141.956 72.7326 140.204 86.5368 132.787 95.2154C127.813 101.043 120.543 104.132 112.007 104.132L112.041 104.12ZM107.688 103.43C117.965 104.641 126.772 101.62 132.493 94.9212C139.785 86.3897 141.527 72.8004 137.276 57.6158C118.723 59.8788 102.103 65.5362 92.7306 72.7778C94.89 80.5512 93.9855 87.5212 90.232 91.9227C90.2094 91.9454 90.1981 91.968 90.1755 91.9793C96.145 92.6469 102.205 96.5166 107.688 103.43ZM77.9313 95.9622C82.5214 96.3808 86.4898 95.1135 89.2484 92.3414C85.3479 92.1038 81.5039 93.3031 77.9313 95.9622Z" fill="#11112B"/>
<path id="Vector_62" d="M93.2732 85.6769L93.0132 85.3374C102.476 77.9601 119.582 76.8851 138.79 82.4747L138.666 82.8934C119.593 77.349 102.634 78.39 93.2732 85.6882V85.6769Z" fill="#11112B"/>
</g>
</g>
<path id="Vector_63" d="M82.9509 134.716L82.8605 134.433C77.0832 117.268 78.4399 102.717 86.4105 94.8646C86.5122 93.9142 86.4331 92.7601 86.3879 92.0698C86.32 91.1081 86.2748 90.8478 85.7887 88.3812C85.6417 87.6457 85.393 86.6839 85.1669 85.9598C84.6807 84.4662 83.9684 82.4634 83.4031 80.9925C83.0527 80.076 82.51 78.8992 82.069 78.0393C81.9334 77.7677 81.7751 77.4735 81.6168 77.1567C81.2663 76.4778 80.9159 75.7763 80.5993 75.1992C80.2714 74.5995 79.8418 73.8867 79.4348 73.1965C79.2539 72.891 79.073 72.5855 78.9147 72.3139C78.5643 71.7255 76.6875 68.8176 75.0255 66.7017C74.0419 65.4457 71.7468 62.5039 68.2533 59.1207C65.2234 56.1788 62.9283 54.5268 61.0741 53.1916C60.9498 53.1011 57.9537 50.9513 54.3019 49.3559C52.7191 48.6657 51.1024 48.1791 49.9153 48.0094C40.3506 53.78 25.9583 51.517 10.7858 41.707L10.5371 41.5486L10.7745 41.3675C16.4387 36.9434 23.9345 35.1556 32.4478 36.1739C57.0154 39.1158 83.5614 64.699 91.6112 93.2127C96.6423 111.056 93.4992 126.501 83.1883 134.546L82.9509 134.727V134.716ZM86.2861 95.5888C78.8582 103.373 77.6598 117.438 83.1657 133.992C93.1488 126.015 96.1448 110.83 91.2042 93.3032C83.1996 64.9479 56.8232 39.5005 32.4026 36.5813C24.1267 35.5969 16.8345 37.2941 11.2833 41.5033C25.9356 50.906 39.8192 53.203 49.1804 47.9302C49.1465 47.9302 49.1239 47.9302 49.09 47.9302L49.0674 47.5002C49.3161 47.4776 49.7796 47.3644 50.311 47.1155C50.8537 46.8666 51.125 46.6742 51.6112 46.3122L51.8712 46.6516L51.7581 46.4932L51.8825 46.6516C51.4303 47.0024 50.9667 47.3418 50.4806 47.6473C51.6451 47.8736 53.0922 48.3262 54.4942 48.9485C58.1799 50.5553 61.2098 52.739 61.3455 52.8296C63.1996 54.176 65.5173 55.8393 68.5699 58.7925C72.086 62.1984 74.3924 65.1629 75.376 66.4188C77.038 68.5574 78.9486 71.4879 79.2878 72.0763C79.4461 72.3479 79.627 72.6421 79.8079 72.9589C80.2149 73.6491 80.6445 74.3619 80.9837 74.9729C81.3003 75.55 81.662 76.2515 82.0125 76.9417C82.1708 77.2472 82.3178 77.5527 82.4648 77.813C82.9057 78.6729 83.4484 79.8723 83.8102 80.8002C84.3867 82.2711 85.099 84.2852 85.5852 85.79C85.8226 86.5142 86.0826 87.5099 86.2183 88.2454C86.7044 90.746 86.761 91.0176 86.8288 92.002C86.8627 92.5903 86.9306 93.5182 86.8853 94.3894C87.2923 94.016 87.722 93.6539 88.1516 93.3145L88.4229 93.6539C88.0724 93.9368 87.1454 94.6949 86.6931 95.7585L86.2861 95.6227C86.2861 95.6227 86.2861 95.6001 86.2861 95.5888Z" fill="#11112B"/>
</g>
<g id="Group_26">
<g id="Group_27">
<g id="Group_28">
<path id="Vector_64" d="M61.7528 139.751L61.5154 139.728C36.9478 136.787 10.4018 111.203 2.35201 82.6897L2.28418 82.4521L2.53291 82.4182C21.2327 80.1665 37.9993 74.4524 47.3718 67.143L47.6205 66.9506L47.711 67.2561C51.7585 81.5809 65.0654 94.4233 77.3888 95.9056L77.9088 95.9622L77.5018 96.279C68.1406 103.577 62.2503 119.735 61.7528 139.513V139.751ZM2.83817 82.8142C10.8992 110.988 37.0496 136.221 61.3345 139.276C61.8772 119.758 67.6545 103.747 76.8461 96.2677C64.6019 94.5026 51.521 81.8411 47.3944 67.6861C37.954 74.9164 21.3458 80.5625 2.83817 82.8255V82.8142Z" fill="#11112B"/>
<path id="Vector_65" d="M63.675 121.704C45.4614 119.531 25.8005 100.567 19.8311 79.4423L20.2494 79.3292C26.1736 100.307 45.6762 119.124 63.7316 121.285L63.6863 121.715L63.675 121.704Z" fill="#11112B"/>
<path id="Vector_66" d="M69.0337 106.711C55.0371 105.037 39.9099 90.4631 35.3311 74.2261L35.7494 74.113C40.2943 90.2028 55.2519 104.641 69.0902 106.293L69.045 106.723L69.0337 106.711Z" fill="#11112B"/>
<path id="Vector_67" d="M37.3209 129.884L36.9365 129.703C44.9976 112.833 55.4442 98.3836 64.8845 91.0289L65.1446 91.3683C55.7607 98.6778 45.3594 113.082 37.3209 129.896V129.884Z" fill="#11112B"/>
</g>
<g id="Group_29">
<path id="Vector_68" d="M2.40824 82.8708L2.36301 82.6898C-1.98973 67.2901 -0.237324 53.4858 7.1793 44.8073C13.0131 37.9843 21.9899 34.9067 32.4478 36.1626H32.5383L32.5948 36.2418C38.1007 43.2232 44.2059 47.0703 50.1979 47.6247C53.1714 44.4678 57.5693 43.0648 62.6683 43.6758L63.1883 43.7323L62.7813 44.0492C58.8808 47.0929 54.6637 48.4054 50.3675 48.066C50.2771 48.1565 50.1979 48.2583 50.1075 48.3602C46.4218 52.6712 45.5626 59.5507 47.7333 67.2448L47.7785 67.3806L47.6654 67.4711C38.2251 74.8259 21.3794 80.5739 2.61174 82.8368L2.43085 82.8595L2.40824 82.8708ZM27.9707 36.321C19.5592 36.321 12.4026 39.3648 7.51847 45.0901C0.214909 53.6216 -1.52619 67.2109 2.7135 82.3956C21.2663 80.1326 37.8859 74.4751 47.2584 67.2335C45.099 59.4601 46.0035 52.4901 49.757 48.0886C49.7796 48.066 49.7909 48.0433 49.8136 48.0207C43.8441 47.3531 37.7842 43.4834 32.3008 36.57C30.8198 36.4002 29.3726 36.3097 27.9594 36.3097L27.9707 36.321ZM50.7519 47.67C54.6411 47.8963 58.4964 46.7082 62.0691 44.0492C57.4789 43.6192 53.5106 44.8978 50.7519 47.67Z" fill="#11112B"/>
<path id="Vector_69" d="M19.8419 79.4423C16.6197 68.0255 17.9199 57.7855 23.4258 51.3473C27.756 46.2782 34.4151 44.0039 42.1822 44.9317L42.137 45.3617C34.5169 44.4452 27.9934 46.6742 23.7537 51.6302C18.3495 57.9552 17.072 68.0595 20.2602 79.3292L19.8419 79.4423Z" fill="#11112B"/>
<path id="Vector_70" d="M35.3308 74.2262C32.8549 65.4458 33.8611 57.5592 38.0895 52.6033C41.4247 48.6996 46.5462 46.9458 52.5383 47.6586L52.4931 48.0886C46.6593 47.3984 41.6621 49.0957 38.4286 52.8862C34.2907 57.729 33.3184 65.4684 35.7492 74.113L35.3308 74.2262Z" fill="#11112B"/>
<path id="Vector_71" d="M24.1042 61.0782C17.1398 61.0782 9.36138 59.9127 1.22119 57.5366L1.34556 57.1179C20.4072 62.6622 37.3772 61.6213 46.7384 54.3231L46.9985 54.6626C41.5491 58.9057 33.5672 61.0668 24.1042 61.0668V61.0782Z" fill="#11112B"/>
</g>
<g id="Group_30">
<path id="Vector_72" d="M108.073 103.905L107.553 103.849C99.0734 102.83 90.3566 99.1191 82.239 93.5182C80.6223 94.1744 79.0395 95.0909 77.5019 96.2903L77.434 96.3469H77.3436C64.862 94.842 51.3854 81.8524 47.304 67.3806L47.2588 67.2448L47.3718 67.1543C50.3227 64.846 52.4142 62.4812 53.5561 60.1503C51.4193 55.8393 49.6669 51.3699 48.3781 46.8213L48.2311 46.2782L48.7059 46.5837C52.6856 49.1069 54.8676 52.2072 55.0372 55.5565C55.105 57.0614 54.7659 58.6002 54.0423 60.1503C60.6223 73.3549 70.8427 85.0885 82.2842 93.0429C90.6166 89.7955 99.8083 93.4503 107.745 103.509L108.073 103.917V103.905ZM82.7252 93.3258C90.5375 98.6778 98.9151 102.265 107.089 103.351C99.4465 93.8915 90.6958 90.3839 82.7252 93.3258ZM47.7676 67.3919C51.849 81.6261 65.0655 94.3668 77.321 95.883C78.7794 94.7515 80.2944 93.8576 81.832 93.2126C70.5036 85.2809 60.3962 73.6604 53.8162 60.6029C52.6291 62.8772 50.594 65.1629 47.7676 67.3806V67.3919ZM48.9773 47.24C50.2096 51.4604 51.8376 55.613 53.8162 59.6298C54.4154 58.2494 54.698 56.8803 54.6302 55.5451C54.4832 52.4901 52.5386 49.6161 48.9773 47.2287V47.24Z" fill="#11112B"/>
<path id="Vector_73" d="M82.9628 93.9481C82.1601 90.2481 80.4642 87.8267 78.0447 86.9441C74.8113 85.7674 70.3568 87.2949 65.1448 91.3457L64.8848 91.0062C70.2098 86.8536 74.8226 85.3148 78.1917 86.5368C80.7468 87.4646 82.5445 89.9992 83.3811 93.8463L82.9628 93.9368V93.9481Z" fill="#11112B"/>
<path id="Vector_74" d="M54.4378 81.0264L54.1777 80.687C60.9838 75.3802 63.0528 73.502 63.6746 72.8344C63.392 72.9589 62.9284 73.2078 62.137 73.683L61.9222 73.3096C63.9234 72.1102 64.1608 72.1555 64.3191 72.3818C64.5 72.642 64.7487 73.0041 54.4604 81.0264H54.4378Z" fill="#11112B"/>
</g>
<g id="Group_31">
<path id="Vector_75" d="M47.3943 67.6748L47.3039 67.3693C45.0993 59.5393 45.9924 52.5127 49.7686 48.0886C49.8138 48.032 49.8703 47.9754 49.9155 47.9188C49.4746 47.5794 48.9885 47.2513 48.491 46.9231L48.4232 46.8779L48.4006 46.7987C44.0591 31.399 45.8115 17.5947 53.2281 8.91617C59.0506 2.09325 68.0275 -0.973101 78.4853 0.282859L78.6775 0.305489V0.497844C78.1688 20.4009 72.2106 36.6944 62.7589 44.0604L62.6911 44.117H62.6007C57.6713 43.5173 53.4203 44.8525 50.5374 47.8736C53.3525 50.1366 54.9014 52.7503 55.0371 55.5451C55.2293 59.4375 52.6629 63.5674 47.6318 67.4937L47.383 67.6861L47.3943 67.6748ZM50.2547 48.1791C50.1982 48.2357 50.153 48.3036 50.0964 48.3601C46.4673 52.6146 45.5741 59.3696 47.6318 66.9393C52.3802 63.1714 54.7883 59.2338 54.6188 55.5564C54.4944 52.8861 52.9907 50.3742 50.2547 48.1904V48.1791ZM48.785 46.6063C49.2824 46.9231 49.7573 47.2626 50.2095 47.602C53.1716 44.4791 57.5244 43.0874 62.5668 43.6644C71.8601 36.3663 77.7052 20.3217 78.2479 0.678883C68.0162 -0.497873 59.2428 2.52322 53.5447 9.19905C46.2411 17.7532 44.5114 31.3877 48.785 46.6063Z" fill="#11112B"/>
<path id="Vector_76" d="M46.9988 54.6739L46.7388 54.3344C56.0435 47.0815 56.2017 34.8274 47.1571 21.5663L47.5076 21.3287C56.6992 34.7935 56.5183 47.2626 46.9988 54.6739Z" fill="#11112B"/>
</g>
</g>
<path id="Vector_77" d="M61.7526 139.751L61.5152 139.728C36.9476 136.787 10.4015 111.203 2.35179 82.6898C-2.69061 64.8461 0.463716 49.4011 10.7746 41.3562L10.899 41.2657L11.0234 41.3449C27.1002 51.7433 42.2613 53.599 51.6 46.3235L51.86 46.6629C46.7498 50.6458 45.1896 58.34 47.7108 67.2448C51.7582 81.5696 65.0652 94.412 77.3885 95.8943L77.9086 95.9509L77.5016 96.2677C68.1404 103.566 62.25 119.724 61.7526 139.502V139.74V139.751ZM10.9216 41.7975C0.848114 49.7406 -2.20446 64.9705 2.7701 82.5766C10.752 110.841 36.9815 136.221 61.3343 139.276C61.8769 119.758 67.6542 103.747 76.8459 96.2677C64.5112 94.4913 51.3399 81.6601 47.3037 67.3806C45.0765 59.4828 46.0036 52.5128 49.7345 48.1339C40.1924 53.7461 25.947 51.4831 10.9216 41.8088V41.7975Z" fill="#11112B"/>
</g>
<g id="Group_32">
<g id="Group_33">
<g id="Group_34">
<path id="Vector_78" d="M66.0034 140C64.5449 140 63.0412 139.909 61.515 139.728L61.3228 139.706V139.513C61.8315 119.61 67.7897 103.317 77.2413 95.9508L77.3092 95.8943H77.3996C82.329 96.494 86.58 95.1588 89.4629 92.1377C86.6478 89.8747 85.0989 87.2609 84.9632 84.4662C84.771 80.5738 87.3374 76.4438 92.3685 72.5175L92.6173 72.3252L92.7077 72.6307C94.9237 80.4607 94.0192 87.4872 90.243 91.9114C90.1978 91.968 90.1413 92.0245 90.0961 92.0811C90.537 92.4206 91.0231 92.7487 91.5206 93.0768L91.5884 93.1221L91.611 93.2013C95.9525 108.601 94.2001 122.405 86.7835 131.084C81.8089 136.911 74.5393 140 66.0034 140ZM61.7637 139.321C71.9954 140.487 80.7688 137.477 86.4669 130.801C93.7705 122.247 95.5003 108.612 91.2267 93.3937C90.7292 93.0768 90.2543 92.7374 89.8021 92.3979C86.84 95.5209 82.4872 96.9126 77.4449 96.3355C68.1515 103.634 62.3064 119.678 61.7637 139.321ZM92.3798 73.0607C87.6314 76.8286 85.2233 80.7662 85.3928 84.4435C85.5172 87.1138 87.0209 89.6258 89.7569 91.8096C89.8134 91.753 89.8699 91.6851 89.9152 91.6285C93.5443 87.3741 94.4375 80.6191 92.3798 73.0494V73.0607Z" fill="#11112B"/>
<path id="Vector_79" d="M67.0095 121.896C65.9242 121.896 64.8162 121.828 63.6743 121.692L63.7195 121.262C71.3397 122.168 77.8631 119.939 82.1028 114.994C87.507 108.669 88.7845 98.5759 85.5963 87.2949L86.0146 87.1818C89.2368 98.5986 87.9366 108.839 82.4307 115.277C78.7337 119.61 73.3408 121.896 67.0095 121.896Z" fill="#11112B"/>
<path id="Vector_80" d="M71.5996 106.87C70.763 106.87 69.9038 106.813 69.0332 106.711L69.0784 106.281C74.9122 106.983 79.9094 105.274 83.1429 101.484C87.2808 96.6411 88.2531 88.9016 85.8224 80.257L86.2407 80.1439C88.7166 88.9243 87.7104 96.8108 83.482 101.767C80.633 105.105 76.4724 106.87 71.5996 106.87Z" fill="#11112B"/>
<path id="Vector_81" d="M81.7636 135.214C75.9185 116.635 78.1005 101.122 87.5861 93.7331L87.8462 94.0725C78.5075 101.348 76.3934 116.68 82.1706 135.089L81.7636 135.214Z" fill="#11112B"/>
</g>
<g id="Group_35">
<path id="Vector_82" d="M112.04 104.12C110.582 104.12 109.078 104.03 107.552 103.849H107.462L107.405 103.769C101.899 96.7995 95.794 92.9411 89.8019 92.3866C86.8285 95.5435 82.4305 96.9352 77.3316 96.3356L76.8115 96.279L77.2185 95.9622C81.119 92.9184 85.3474 91.6059 89.6323 91.9454C89.7228 91.8548 89.8019 91.753 89.8924 91.6512C93.5781 87.3402 94.4373 80.4607 92.2666 72.7665L92.2214 72.6307L92.3344 72.5402C101.775 65.1855 118.62 59.4375 137.388 57.1745L137.569 57.1519L137.614 57.3329C141.956 72.7326 140.203 86.5368 132.787 95.2154C127.812 101.043 120.542 104.132 112.007 104.132L112.04 104.12ZM107.688 103.43C117.965 104.641 126.772 101.62 132.493 94.9212C139.785 86.3897 141.526 72.8004 137.275 57.6158C118.722 59.8788 102.103 65.5362 92.7301 72.7778C94.8895 80.5512 93.9851 87.5212 90.2315 91.9227C90.2089 91.9454 90.1976 91.968 90.175 91.9793C96.1445 92.6469 102.204 96.5166 107.688 103.43ZM77.9308 95.9622C82.521 96.3808 86.4893 95.1135 89.2479 92.3414C85.3474 92.1038 81.5034 93.3031 77.9308 95.9622Z" fill="#11112B"/>
<path id="Vector_83" d="M127.891 99.4472C112.153 88.8111 97.1846 86.797 87.846 94.0725L87.5859 93.7331C97.0715 86.3331 112.233 88.3359 128.129 99.0851L127.891 99.4358V99.4472Z" fill="#11112B"/>
</g>
</g>
<path id="Vector_84" d="M66.0486 140C64.5788 140 63.0638 139.909 61.515 139.728L61.3228 139.706V139.513C61.8315 119.61 67.7897 103.317 77.2413 95.9509L77.3092 95.8943H77.3996C81.628 96.4035 85.3363 95.5209 88.1402 93.3371L88.4002 93.6765C79.0616 100.952 77.1396 116.137 83.256 134.297L83.3013 134.444L83.1769 134.535C78.5415 138.156 72.6738 140.011 66.0373 140.011L66.0486 140ZM61.7637 139.321C70.0169 140.26 77.2866 138.529 82.8038 134.275C77.1283 117.302 78.4285 102.898 86.2295 95.023C83.7196 96.2564 80.7235 96.709 77.4449 96.3242C68.1515 103.622 62.3064 119.667 61.7637 139.31V139.321Z" fill="#11112B"/>
</g>
<g id="Group_36">
<g id="Group_37">
<g id="Group_38">
<path id="Vector_85" d="M61.7528 139.751L61.5154 139.728C36.9478 136.787 10.4018 111.203 2.35201 82.6897L2.28418 82.4521L2.53291 82.4182C21.2327 80.1665 37.9993 74.4524 47.3718 67.143L47.6205 66.9506L47.711 67.2561C51.7585 81.5809 65.0654 94.4233 77.3888 95.9056L77.9088 95.9622L77.5018 96.279C68.1406 103.577 62.2503 119.735 61.7528 139.513V139.751ZM2.83817 82.8142C10.8992 110.988 37.0496 136.221 61.3345 139.276C61.8772 119.758 67.6545 103.747 76.8461 96.2677C64.6019 94.5026 51.521 81.8411 47.3944 67.6861C37.954 74.9164 21.3458 80.5625 2.83817 82.8255V82.8142Z" fill="#11112B"/>
<path id="Vector_86" d="M37.3209 129.884L36.9365 129.703C44.9976 112.833 55.4442 98.3836 64.8845 91.0289L65.1446 91.3683C55.7607 98.6778 45.3594 113.082 37.3209 129.896V129.884Z" fill="#11112B"/>
</g>
<g id="Group_39">
<path id="Vector_87" d="M2.40824 82.8708L2.36301 82.6898C-1.98973 67.2901 -0.237324 53.4858 7.1793 44.8073C13.0131 37.9843 21.9899 34.9067 32.4478 36.1626H32.5383L32.5948 36.2418C38.1007 43.2232 44.2059 47.0703 50.1979 47.6247C53.1714 44.4678 57.5693 43.0648 62.6683 43.6758L63.1883 43.7323L62.7813 44.0492C58.8808 47.0929 54.6637 48.4054 50.3675 48.066C50.2771 48.1565 50.1979 48.2583 50.1075 48.3602C46.4218 52.6712 45.5626 59.5507 47.7333 67.2448L47.7785 67.3806L47.6654 67.4711C38.2251 74.8259 21.3794 80.5739 2.61174 82.8368L2.43085 82.8595L2.40824 82.8708ZM27.9707 36.321C19.5592 36.321 12.4026 39.3648 7.51847 45.0901C0.214909 53.6216 -1.52619 67.2109 2.7135 82.3956C21.2663 80.1326 37.8859 74.4751 47.2584 67.2335C45.099 59.4601 46.0035 52.4901 49.757 48.0886C49.7796 48.066 49.7909 48.0433 49.8136 48.0207C43.8441 47.3531 37.7842 43.4834 32.3008 36.57C30.8198 36.4002 29.3726 36.3097 27.9594 36.3097L27.9707 36.321ZM50.7519 47.67C54.6411 47.8963 58.4964 46.7082 62.0691 44.0492C57.4789 43.6192 53.5106 44.8978 50.7519 47.67Z" fill="#11112B"/>
<path id="Vector_88" d="M24.1042 61.0782C17.1398 61.0782 9.36138 59.9127 1.22119 57.5366L1.34556 57.1179C20.4072 62.6622 37.3772 61.6213 46.7384 54.3231L46.9985 54.6626C41.5491 58.9057 33.5672 61.0668 24.1042 61.0668V61.0782Z" fill="#11112B"/>
</g>
<g id="Group_40">
<path id="Vector_89" d="M108.073 103.905L107.553 103.849C99.0734 102.83 90.3566 99.1191 82.239 93.5182C80.6223 94.1744 79.0395 95.0909 77.5019 96.2903L77.434 96.3469H77.3436C64.862 94.842 51.3854 81.8524 47.304 67.3806L47.2588 67.2448L47.3718 67.1543C50.3227 64.846 52.4142 62.4812 53.5561 60.1503C51.4193 55.8393 49.6669 51.3699 48.3781 46.8213L48.2311 46.2782L48.7059 46.5837C52.6856 49.1069 54.8676 52.2072 55.0372 55.5565C55.105 57.0614 54.7659 58.6002 54.0423 60.1503C60.6223 73.3549 70.8427 85.0885 82.2842 93.0429C90.6166 89.7955 99.8083 93.4503 107.745 103.509L108.073 103.917V103.905ZM82.7252 93.3258C90.5375 98.6778 98.9151 102.265 107.089 103.351C99.4465 93.8915 90.6958 90.3839 82.7252 93.3258ZM47.7676 67.3919C51.849 81.6261 65.0655 94.3668 77.321 95.883C78.7794 94.7515 80.2944 93.8576 81.832 93.2126C70.5036 85.2809 60.3962 73.6604 53.8162 60.6029C52.6291 62.8772 50.594 65.1629 47.7676 67.3806V67.3919ZM48.9773 47.24C50.2096 51.4604 51.8376 55.613 53.8162 59.6298C54.4154 58.2494 54.698 56.8803 54.6302 55.5451C54.4832 52.4901 52.5386 49.6161 48.9773 47.2287V47.24Z" fill="#11112B"/>
<path id="Vector_90" d="M87.4624 92.3414C73.4658 90.6668 58.3386 76.0931 53.7598 59.8561L54.1781 59.743C58.723 75.8329 73.6806 90.2707 87.519 91.9227L87.4737 92.3527L87.4624 92.3414Z" fill="#11112B"/>
<path id="Vector_91" d="M97.8298 95.0796C79.6161 92.9071 59.9553 73.9433 53.9858 52.8182L54.4042 52.7051C60.3284 73.683 79.831 92.4998 97.8863 94.6609L97.8411 95.0909L97.8298 95.0796Z" fill="#11112B"/>
<path id="Vector_92" d="M82.9628 93.9481C82.1601 90.2481 80.4642 87.8267 78.0447 86.9441C74.8113 85.7674 70.3568 87.2949 65.1448 91.3457L64.8848 91.0062C70.2098 86.8536 74.8226 85.3148 78.1917 86.5368C80.7468 87.4646 82.5445 89.9992 83.3811 93.8463L82.9628 93.9368V93.9481Z" fill="#11112B"/>
</g>
<g id="Group_41">
<path id="Vector_93" d="M47.3943 67.6748L47.3039 67.3693C45.0993 59.5393 45.9924 52.5127 49.7686 48.0886C49.8138 48.032 49.8703 47.9754 49.9155 47.9188C49.4746 47.5794 48.9885 47.2513 48.491 46.9231L48.4232 46.8779L48.4006 46.7987C44.0591 31.399 45.8115 17.5947 53.2281 8.91617C59.0506 2.09325 68.0275 -0.973101 78.4853 0.282859L78.6775 0.305489V0.497844C78.1688 20.4009 72.2106 36.6944 62.7589 44.0604L62.6911 44.117H62.6007C57.6713 43.5173 53.4203 44.8525 50.5374 47.8736C53.3525 50.1366 54.9014 52.7503 55.0371 55.5451C55.2293 59.4375 52.6629 63.5674 47.6318 67.4937L47.383 67.6861L47.3943 67.6748ZM50.2547 48.1791C50.1982 48.2357 50.153 48.3036 50.0964 48.3601C46.4673 52.6146 45.5741 59.3696 47.6318 66.9393C52.3802 63.1714 54.7883 59.2338 54.6188 55.5564C54.4944 52.8861 52.9907 50.3742 50.2547 48.1904V48.1791ZM48.785 46.6063C49.2824 46.9231 49.7573 47.2626 50.2095 47.602C53.1716 44.4791 57.5244 43.0874 62.5668 43.6644C71.8601 36.3663 77.7052 20.3217 78.2479 0.678883C68.0162 -0.497873 59.2428 2.52322 53.5447 9.19905C46.2411 17.7532 44.5114 31.3877 48.785 46.6063Z" fill="#11112B"/>
<path id="Vector_94" d="M53.7596 59.8561C51.2836 51.0757 52.2898 43.1892 56.5182 38.2332C59.8534 34.3296 64.9862 32.5757 70.967 33.2886L70.9218 33.7186C65.0993 33.017 60.0908 34.7256 56.846 38.5161C52.7081 43.3589 51.7358 51.0983 54.1779 59.743L53.7596 59.8561Z" fill="#11112B"/>
<path id="Vector_95" d="M53.9855 52.8182C50.7633 41.4014 52.0635 31.1614 57.5694 24.7232C61.8995 19.6541 68.5587 17.3684 76.3258 18.3076L76.2805 18.7376C68.6604 17.821 62.1369 20.0501 57.8973 25.006C52.4931 31.3311 51.2155 41.4354 54.4038 52.7051L53.9855 52.8182Z" fill="#11112B"/>
<path id="Vector_96" d="M46.9988 54.6739L46.7388 54.3344C56.0435 47.0815 56.2017 34.8274 47.1571 21.5663L47.5076 21.3287C56.6992 34.7935 56.5183 47.2626 46.9988 54.6739Z" fill="#11112B"/>
</g>
</g>
<path id="Vector_97" d="M77.434 96.3356H77.3436C64.8619 94.8307 51.3854 81.8411 47.304 67.3693C44.7376 58.2947 46.3543 50.4308 51.6115 46.3348C51.9507 46.0519 52.8778 45.3051 53.3413 44.2415L53.7483 44.3886C53.4657 45.407 53.5787 47.0589 53.6352 47.9528C53.7031 48.9146 53.737 49.1296 54.2345 51.6528C54.3701 52.377 54.6302 53.3387 54.8563 54.0742C55.3424 55.5678 56.0547 57.5705 56.62 59.0415C56.9705 59.9354 57.5018 61.1234 57.9541 61.9947C58.0897 62.2662 58.248 62.5604 58.4063 62.8659C58.7568 63.5448 59.1073 64.2464 59.4238 64.8234C59.7517 65.4231 60.1813 66.136 60.5996 66.8262C60.7805 67.1317 60.9614 67.4372 61.1197 67.7087C61.131 67.7314 62.6008 70.1867 65.0089 73.321C65.936 74.5317 66.6482 75.4142 67.1909 76.0252C68.5363 77.5301 70.3792 79.4989 71.7698 80.902C73.3413 82.4861 76.4617 85.0093 76.7783 85.2469C78.0219 86.1748 79.7517 87.3628 81.0632 88.2228C81.7189 88.6527 82.6347 89.1732 83.3469 89.5353C85.0993 90.4179 85.6873 90.7121 87.0326 91.1986C87.5979 91.4023 88.3215 91.6286 88.8303 91.7643C89.2599 91.8775 89.8591 91.9793 90.2887 92.0472L90.2322 92.4772C85.7551 91.9454 81.4702 93.2353 77.5131 96.313L77.4453 96.3695L77.434 96.3356ZM53.1491 45.3843C52.6742 46.018 52.1203 46.4706 51.8715 46.6742C46.75 50.6571 45.2011 58.3626 47.711 67.2561C51.7472 81.5469 65.0089 94.3668 77.3096 95.8943C80.6222 93.3371 84.1497 92.002 87.8467 91.9114C87.5188 91.8096 87.1796 91.6965 86.8744 91.5833C85.5064 91.0855 84.9072 90.7913 83.1434 89.8974C82.4199 89.5353 81.4815 89.0035 80.8144 88.5622C79.4917 87.7023 77.7619 86.4916 76.5069 85.5638C76.1904 85.3261 73.0247 82.7803 71.4419 81.1849C70.04 79.7705 68.1971 77.8017 66.8404 76.2855C66.2865 75.6632 65.5629 74.7693 64.6358 73.5586C62.2277 70.4243 60.7353 67.9237 60.724 67.9011C60.5657 67.6295 60.3848 67.3354 60.2039 67.0298C59.7856 66.3396 59.3673 65.6155 59.0281 65.0045C58.7116 64.4274 58.3498 63.7259 57.9993 63.0357C57.841 62.7302 57.694 62.4247 57.5471 62.1644C57.0948 61.2932 56.5521 60.0825 56.2017 59.1773C55.6251 57.7063 54.9128 55.6923 54.4267 54.1874C54.1892 53.4519 53.9292 52.4562 53.7935 51.732C53.2961 49.1748 53.2508 48.9599 53.183 47.9755C53.1378 47.3305 53.07 46.3122 53.1378 45.3843H53.1491Z" fill="#11112B"/>
</g>
<g id="Group_42">
<g id="Group_43">
<g id="Group_44">
<path id="Vector_98" d="M61.7528 139.751L61.5154 139.728C36.9478 136.787 10.4018 111.203 2.35201 82.6897L2.28418 82.4521L2.53291 82.4182C21.2327 80.1665 37.9993 74.4524 47.3718 67.143L47.6205 66.9506L47.711 67.2561C51.7585 81.5809 65.0654 94.4233 77.3888 95.9056L77.9088 95.9622L77.5018 96.279C68.1406 103.577 62.2503 119.735 61.7528 139.513V139.751ZM2.83817 82.8142C10.8992 110.988 37.0496 136.221 61.3345 139.276C61.8772 119.758 67.6545 103.747 76.8461 96.2677C64.6019 94.5026 51.521 81.8411 47.3944 67.6861C37.954 74.9164 21.3458 80.5625 2.83817 82.8255V82.8142Z" fill="#11112B"/>
<path id="Vector_99" d="M37.3209 129.884L36.9365 129.703C44.9976 112.833 55.4442 98.3836 64.8845 91.0289L65.1446 91.3683C55.7607 98.6778 45.3594 113.082 37.3209 129.896V129.884Z" fill="#11112B"/>
<path id="Vector_100" d="M16.0998 109.563L15.8511 109.212C30.4243 98.7004 44.7488 88.0304 54.1778 80.687L54.4378 81.0265C45.0088 88.3699 30.6843 99.0399 16.0998 109.563Z" fill="#11112B"/>
</g>
<g id="Group_45">
<path id="Vector_101" d="M2.40824 82.8708L2.36301 82.6898C-1.98973 67.2901 -0.237324 53.4858 7.1793 44.8073C13.0131 37.9843 21.9899 34.9067 32.4478 36.1626H32.5383L32.5948 36.2418C38.1007 43.2232 44.2059 47.0703 50.1979 47.6247C53.1714 44.4678 57.5693 43.0648 62.6683 43.6758L63.1883 43.7323L62.7813 44.0492C58.8808 47.0929 54.6637 48.4054 50.3675 48.066C50.2771 48.1565 50.1979 48.2583 50.1075 48.3602C46.4218 52.6712 45.5626 59.5507 47.7333 67.2448L47.7785 67.3806L47.6654 67.4711C38.2251 74.8259 21.3794 80.5739 2.61174 82.8368L2.43085 82.8595L2.40824 82.8708ZM27.9707 36.321C19.5592 36.321 12.4026 39.3648 7.51847 45.0901C0.214909 53.6216 -1.52619 67.2109 2.7135 82.3956C21.2663 80.1326 37.8859 74.4751 47.2584 67.2335C45.099 59.4601 46.0035 52.4901 49.757 48.0886C49.7796 48.066 49.7909 48.0433 49.8136 48.0207C43.8441 47.3531 37.7842 43.4834 32.3008 36.57C30.8198 36.4002 29.3726 36.3097 27.9594 36.3097L27.9707 36.321ZM50.7519 47.67C54.6411 47.8963 58.4964 46.7082 62.0691 44.0492C57.4789 43.6192 53.5106 44.8978 50.7519 47.67Z" fill="#11112B"/>
<path id="Vector_102" d="M24.1042 61.0782C17.1398 61.0782 9.36138 59.9127 1.22119 57.5366L1.34556 57.1179C20.4072 62.6622 37.3772 61.6213 46.7384 54.3231L46.9985 54.6626C41.5491 58.9057 33.5672 61.0668 24.1042 61.0668V61.0782Z" fill="#11112B"/>
</g>
<g id="Group_46">
<path id="Vector_103" d="M108.073 103.905L107.553 103.849C99.0734 102.83 90.3566 99.1191 82.239 93.5182C80.6223 94.1744 79.0395 95.0909 77.5019 96.2903L77.434 96.3469H77.3436C64.862 94.842 51.3854 81.8524 47.304 67.3806L47.2588 67.2448L47.3718 67.1543C50.3227 64.846 52.4142 62.4812 53.5561 60.1503C51.4193 55.8393 49.6669 51.3699 48.3781 46.8213L48.2311 46.2782L48.7059 46.5837C52.6856 49.1069 54.8676 52.2072 55.0372 55.5565C55.105 57.0614 54.7659 58.6002 54.0423 60.1503C60.6223 73.3549 70.8427 85.0885 82.2842 93.0429C90.6166 89.7955 99.8083 93.4503 107.745 103.509L108.073 103.917V103.905ZM82.7252 93.3258C90.5375 98.6778 98.9151 102.265 107.089 103.351C99.4465 93.8915 90.6958 90.3839 82.7252 93.3258ZM47.7676 67.3919C51.849 81.6261 65.0655 94.3668 77.321 95.883C78.7794 94.7515 80.2944 93.8576 81.832 93.2126C70.5036 85.2809 60.3962 73.6604 53.8162 60.6029C52.6291 62.8772 50.594 65.1629 47.7676 67.3806V67.3919ZM48.9773 47.24C50.2096 51.4604 51.8376 55.613 53.8162 59.6298C54.4154 58.2494 54.698 56.8803 54.6302 55.5451C54.4832 52.4901 52.5386 49.6161 48.9773 47.2287V47.24Z" fill="#11112B"/>
<path id="Vector_104" d="M87.4624 92.3414C73.4658 90.6668 58.3386 76.0931 53.7598 59.8561L54.1781 59.743C58.723 75.8329 73.6806 90.2707 87.519 91.9227L87.4737 92.3527L87.4624 92.3414Z" fill="#11112B"/>
<path id="Vector_105" d="M97.8298 95.0796C79.6161 92.9071 59.9553 73.9433 53.9858 52.8182L54.4042 52.7051C60.3284 73.683 79.831 92.4998 97.8863 94.6609L97.8411 95.0909L97.8298 95.0796Z" fill="#11112B"/>
<path id="Vector_106" d="M82.9628 93.9481C82.1601 90.2481 80.4642 87.8267 78.0447 86.9441C74.8113 85.7674 70.3568 87.2949 65.1448 91.3457L64.8848 91.0062C70.2098 86.8536 74.8226 85.3148 78.1917 86.5368C80.7468 87.4646 82.5445 89.9992 83.3811 93.8463L82.9628 93.9368V93.9481Z" fill="#11112B"/>
</g>
<g id="Group_47">
<path id="Vector_107" d="M47.3943 67.6748L47.3039 67.3693C45.0993 59.5393 45.9924 52.5127 49.7686 48.0886C49.8138 48.032 49.8703 47.9754 49.9155 47.9188C49.4746 47.5794 48.9885 47.2513 48.491 46.9231L48.4232 46.8779L48.4006 46.7987C44.0591 31.399 45.8115 17.5947 53.2281 8.91617C59.0506 2.09325 68.0275 -0.973101 78.4853 0.282859L78.6775 0.305489V0.497844C78.1688 20.4009 72.2106 36.6944 62.7589 44.0604L62.6911 44.117H62.6007C57.6713 43.5173 53.4203 44.8525 50.5374 47.8736C53.3525 50.1366 54.9014 52.7503 55.0371 55.5451C55.2293 59.4375 52.6629 63.5674 47.6318 67.4937L47.383 67.6861L47.3943 67.6748ZM50.2547 48.1791C50.1982 48.2357 50.153 48.3036 50.0964 48.3601C46.4673 52.6146 45.5741 59.3696 47.6318 66.9393C52.3802 63.1714 54.7883 59.2338 54.6188 55.5564C54.4944 52.8861 52.9907 50.3742 50.2547 48.1904V48.1791ZM48.785 46.6063C49.2824 46.9231 49.7573 47.2626 50.2095 47.602C53.1716 44.4791 57.5244 43.0874 62.5668 43.6644C71.8601 36.3663 77.7052 20.3217 78.2479 0.678883C68.0162 -0.497873 59.2428 2.52322 53.5447 9.19905C46.2411 17.7532 44.5114 31.3877 48.785 46.6063Z" fill="#11112B"/>
<path id="Vector_108" d="M53.7596 59.8561C51.2836 51.0757 52.2898 43.1892 56.5182 38.2332C59.8534 34.3296 64.9862 32.5757 70.967 33.2886L70.9218 33.7186C65.0993 33.017 60.0908 34.7256 56.846 38.5161C52.7081 43.3589 51.7358 51.0983 54.1779 59.743L53.7596 59.8561Z" fill="#11112B"/>
<path id="Vector_109" d="M53.9855 52.8182C50.7633 41.4014 52.0635 31.1614 57.5694 24.7232C61.8995 19.6541 68.5587 17.3684 76.3258 18.3076L76.2805 18.7376C68.6604 17.821 62.1369 20.0501 57.8973 25.006C52.4931 31.3311 51.2155 41.4354 54.4038 52.7051L53.9855 52.8182Z" fill="#11112B"/>
<path id="Vector_110" d="M46.9988 54.6739L46.7388 54.3344C56.0435 47.0815 56.2017 34.8274 47.1571 21.5663L47.5076 21.3287C56.6992 34.7935 56.5183 47.2626 46.9988 54.6739Z" fill="#11112B"/>
</g>
</g>
<path id="Vector_111" d="M108.073 103.905L107.553 103.849C82.9852 100.907 56.4391 75.3237 48.3894 46.81C43.347 28.9663 46.5013 13.5101 56.8122 5.47645L57.0496 5.29541L57.1401 5.57828C62.9174 22.7431 61.5607 37.2941 53.5901 45.1467C53.4092 46.9458 53.7031 50.1932 54.7206 53.6555C55.1729 55.2057 55.8965 57.2198 56.4278 58.5889C56.7105 59.313 57.1175 60.2069 57.4793 60.999C57.6036 61.2705 57.728 61.5308 57.8411 61.7797C58.6325 63.5222 59.4352 64.8913 61.0519 67.6295C61.0632 67.6522 62.5556 70.1528 64.9637 73.287C65.8795 74.4751 66.9083 75.8216 69.373 78.4806C71.0463 80.2796 73.2509 82.3277 74.0197 82.9726C76.4165 84.9867 77.6149 85.9937 80.758 88.0191C81.4476 88.4717 82.2842 88.9582 82.8608 89.2524C84.1949 89.9389 85.3896 90.5046 86.4448 90.9497C87.1231 91.2325 88.5364 91.753 90.2548 92.0019C96.3261 92.7261 102.363 96.6976 107.722 103.475L108.05 103.883L108.073 103.905ZM56.8461 6.00825C46.8631 13.9853 43.8558 29.17 48.8077 46.6968C56.7557 74.8485 82.8156 100.137 107.078 103.362C101.877 96.924 96.0547 93.1561 90.2209 92.4545C88.4459 92.1943 86.9988 91.6625 86.2978 91.3683C85.2275 90.9232 84.0216 90.3537 82.6799 89.6597C81.9564 89.2864 81.0745 88.7432 80.5318 88.4038C77.3775 86.3671 76.1678 85.3487 73.7597 83.3234C72.9909 82.6784 70.7636 80.6078 69.079 78.7974C66.6031 76.1271 65.5629 74.7693 64.6472 73.5699C62.2051 70.3904 60.7127 67.8898 60.7014 67.8671C59.0734 65.1176 58.2594 63.7372 57.468 61.972C57.3549 61.7344 57.2418 61.4629 57.1062 61.1913C56.7331 60.3993 56.3261 59.4941 56.0434 58.7586C55.5121 57.3782 54.7885 55.3415 54.3249 53.7913C53.3753 50.5779 53.0474 47.5115 53.1378 45.5993C52.7308 45.9727 52.3012 46.3348 51.8603 46.6855L51.5889 46.3461C52.0186 45.984 52.2899 45.7577 52.6291 45.3504C53.07 44.8073 53.2509 44.4339 53.3187 44.2528L53.7257 44.3886C53.7257 44.3886 53.7257 44.4112 53.7257 44.4225C61.1537 36.6378 62.3521 22.5734 56.8461 6.00825Z" fill="#11112B"/>
</g>
<g id="Group_48">
<g id="Group_49">
<g id="Group_50">
<path id="Vector_112" d="M2.40824 82.8708L2.36301 82.6898C-1.98973 67.2901 -0.237324 53.4858 7.1793 44.8073C13.0131 37.9843 21.9899 34.9067 32.4478 36.1626H32.5383L32.5948 36.2418C38.1007 43.2232 44.2059 47.0703 50.1979 47.6247C53.1714 44.4678 57.5693 43.0648 62.6683 43.6758L63.1883 43.7323L62.7813 44.0492C58.8808 47.0929 54.6637 48.4054 50.3675 48.066C50.2771 48.1565 50.1979 48.2583 50.1075 48.3602C46.4218 52.6712 45.5626 59.5507 47.7333 67.2448L47.7785 67.3806L47.6654 67.4711C38.2251 74.8259 21.3794 80.5739 2.61174 82.8368L2.43085 82.8595L2.40824 82.8708ZM27.9707 36.321C19.5592 36.321 12.4026 39.3648 7.51847 45.0901C0.214909 53.6216 -1.52619 67.2109 2.7135 82.3956C21.2663 80.1326 37.8859 74.4751 47.2584 67.2335C45.099 59.4601 46.0035 52.4901 49.757 48.0886C49.7796 48.066 49.7909 48.0433 49.8136 48.0207C43.8441 47.3531 37.7842 43.4834 32.3008 36.57C30.8198 36.4002 29.3726 36.3097 27.9594 36.3097L27.9707 36.321ZM50.7519 47.67C54.6411 47.8963 58.4964 46.7082 62.0691 44.0492C57.4789 43.6192 53.5106 44.8978 50.7519 47.67Z" fill="#11112B"/>
<path id="Vector_113" d="M38.6659 50.6684C30.7179 50.6684 21.4245 47.3645 11.8711 40.9036L12.1085 40.5529C27.8462 51.1889 42.8151 53.203 52.1537 45.9275L52.4138 46.2669C48.6263 49.2201 43.9457 50.6684 38.6659 50.6684Z" fill="#11112B"/>
</g>
<g id="Group_51">
<path id="Vector_114" d="M91.7582 93.7331L91.2834 93.4276C87.3037 90.9044 85.1217 87.8041 84.9521 84.4549C84.8843 82.95 85.2235 81.4111 85.947 79.861C79.367 66.6564 69.1466 54.9228 57.7051 46.9684C49.3727 50.2271 40.1811 46.5611 32.2444 36.5021L31.9165 36.0947L32.4366 36.1513C40.9159 37.1696 49.6327 40.881 57.7503 46.4819C59.367 45.8256 60.9499 44.9091 62.4874 43.7097L62.5553 43.6531H62.6457C75.1274 45.158 88.6039 58.1476 92.6853 72.6194L92.7305 72.7552L92.6175 72.8457C89.6666 75.154 87.5751 77.5188 86.4219 79.8497C88.5587 84.1607 90.3111 88.6301 91.5999 93.1787L91.7469 93.7218L91.7582 93.7331ZM86.2071 80.3588C85.6079 81.7393 85.3252 83.1084 85.393 84.4435C85.54 87.4986 87.4846 90.3726 91.046 92.76C89.8136 88.5396 88.1856 84.387 86.2184 80.3702L86.2071 80.3588ZM58.1912 46.776C69.5197 54.7192 79.6271 66.3283 86.2071 79.3858C87.3942 77.1115 89.4292 74.8258 92.2557 72.6081C88.1743 58.3739 74.9578 45.6332 62.7023 44.117C61.2438 45.2485 59.7288 46.1424 58.1912 46.7874V46.776ZM32.9227 36.6378C40.5655 46.1085 49.3275 49.6048 57.2868 46.6629C49.4744 41.3109 41.0968 37.7241 32.9227 36.6378Z" fill="#11112B"/>
<path id="Vector_115" d="M64.251 53.8592C63.3804 53.8592 62.5664 53.7234 61.8202 53.4519C59.2651 52.524 57.4675 49.9895 56.6309 46.1424L57.0492 46.0519C57.8519 49.7519 59.5591 52.1733 61.9672 53.0558C65.2007 54.2326 69.6665 52.7051 74.8672 48.6543L75.1272 48.9938C70.9893 52.2185 67.2809 53.8705 64.251 53.8705V53.8592Z" fill="#11112B"/>
<path id="Vector_116" d="M75.9299 67.7427C75.8055 67.7427 75.749 67.6861 75.7037 67.6182C75.5228 67.358 75.2741 66.9959 85.5624 58.9736L85.8224 59.313C79.0163 64.6197 76.9474 66.498 76.3256 67.1656C76.6082 67.0298 77.0717 66.7922 77.8744 66.317L78.0893 66.6904C76.7213 67.5051 76.1786 67.7427 75.9185 67.7427H75.9299Z" fill="#11112B"/>
</g>
<g id="Group_52">
<path id="Vector_117" d="M66.0039 140C64.5454 140 63.0417 139.91 61.5154 139.728L61.3232 139.706V139.513C61.832 119.61 67.7902 103.317 77.2418 95.9509L77.3097 95.8943H77.4001C82.3295 96.494 86.5804 95.1588 89.4634 92.1378C86.6483 89.8748 85.0994 87.261 84.9637 84.4662C84.7715 80.5739 87.3379 76.4439 92.369 72.5176L92.6178 72.3253L92.7082 72.6308C94.9241 80.4607 94.0197 87.4873 90.2435 91.9115C90.1983 91.968 90.1418 92.0246 90.0966 92.0812C90.5375 92.4206 91.0236 92.7488 91.5211 93.0769L91.5889 93.1222L91.6115 93.2014C95.953 108.601 94.2006 122.405 86.784 131.084C81.8094 136.911 74.5397 140 66.0039 140ZM61.7642 139.321C71.9959 140.487 80.7693 137.477 86.4674 130.801C93.771 122.247 95.5007 108.612 91.2271 93.3937C90.7297 93.0769 90.2548 92.7374 89.8026 92.398C86.8405 95.5209 82.4877 96.9127 77.4453 96.3356C68.152 103.634 62.3068 119.678 61.7642 139.321ZM92.3803 73.0607C87.6319 76.8286 85.2237 80.7662 85.3933 84.4436C85.5177 87.1139 87.0214 89.6258 89.7574 91.8096C89.8139 91.753 89.8704 91.6852 89.9157 91.6286C93.5448 87.3742 94.438 80.6191 92.3803 73.0494V73.0607Z" fill="#11112B"/>
<path id="Vector_118" d="M92.5049 118.683C83.3133 105.218 83.4942 92.7488 93.0137 85.3375L93.2737 85.6769C83.969 92.9298 83.8107 105.184 92.8554 118.445L92.5049 118.683Z" fill="#11112B"/>
</g>
<g id="Group_53">
<path id="Vector_119" d="M47.3943 67.6748L47.3039 67.3693C45.0993 59.5393 45.9924 52.5127 49.7686 48.0886C49.8138 48.032 49.8703 47.9754 49.9155 47.9188C49.4746 47.5794 48.9885 47.2513 48.491 46.9231L48.4232 46.8779L48.4006 46.7987C44.0591 31.399 45.8115 17.5947 53.2281 8.91617C59.0506 2.09325 68.0275 -0.973101 78.4853 0.282859L78.6775 0.305489V0.497844C78.1688 20.4009 72.2106 36.6944 62.7589 44.0604L62.6911 44.117H62.6007C57.6713 43.5173 53.4203 44.8525 50.5374 47.8736C53.3525 50.1366 54.9014 52.7503 55.0371 55.5451C55.2293 59.4375 52.6629 63.5674 47.6318 67.4937L47.383 67.6861L47.3943 67.6748ZM50.2547 48.1791C50.1982 48.2357 50.153 48.3036 50.0964 48.3601C46.4673 52.6146 45.5741 59.3696 47.6318 66.9393C52.3802 63.1714 54.7883 59.2338 54.6188 55.5564C54.4944 52.8861 52.9907 50.3742 50.2547 48.1904V48.1791ZM48.785 46.6063C49.2824 46.9231 49.7573 47.2626 50.2095 47.602C53.1716 44.4791 57.5244 43.0874 62.5668 43.6644C71.8601 36.3663 77.7052 20.3217 78.2479 0.678883C68.0162 -0.497873 59.2428 2.52322 53.5447 9.19905C46.2411 17.7532 44.5114 31.3877 48.785 46.6063Z" fill="#11112B"/>
<path id="Vector_120" d="M53.7596 59.8561C51.2836 51.0757 52.2898 43.1892 56.5182 38.2332C59.8534 34.3296 64.9862 32.5757 70.967 33.2886L70.9218 33.7186C65.0993 33.017 60.0908 34.7256 56.846 38.5161C52.7081 43.3589 51.7358 51.0983 54.1779 59.743L53.7596 59.8561Z" fill="#11112B"/>
<path id="Vector_121" d="M53.9855 52.8182C50.7633 41.4014 52.0635 31.1614 57.5694 24.7232C61.8995 19.6541 68.5587 17.3684 76.3258 18.3076L76.2805 18.7376C68.6604 17.821 62.1369 20.0501 57.8973 25.006C52.4931 31.3311 51.2155 41.4354 54.4038 52.7051L53.9855 52.8182Z" fill="#11112B"/>
<path id="Vector_122" d="M52.4143 46.2668L52.1543 45.9274C61.4929 38.6519 63.6071 23.3201 57.8298 4.91066L58.2368 4.78619C64.0706 23.3654 61.8999 38.8782 52.4143 46.2668Z" fill="#11112B"/>
</g>
<g id="Group_54">
<path id="Vector_123" d="M92.3801 73.0607L92.2896 72.7552C88.2422 58.4305 74.9352 45.588 62.6119 44.1057L62.0918 44.0491L62.4988 43.7323C71.86 36.4342 77.7504 20.2764 78.2478 0.497868V0.260254L78.4852 0.282884C103.053 3.22477 129.599 28.8079 137.649 57.3216L137.716 57.5592L137.468 57.5932C118.768 59.8448 102.001 65.5589 92.6288 72.8683L92.3801 73.0607ZM63.1659 43.7436C75.4101 45.5088 88.4909 58.1702 92.6175 72.3252C102.058 65.095 118.666 59.4488 137.174 57.1858C129.113 29.0116 102.951 3.77921 78.6774 0.735482C78.1348 20.2538 72.3575 36.2645 63.1659 43.7436Z" fill="#11112B"/>
<path id="Vector_124" d="M104.263 65.8983C99.7178 49.8085 84.7602 35.3706 70.9219 33.7186L70.9671 33.2886C84.9637 34.9632 100.091 49.5369 104.67 65.7739L104.251 65.887L104.263 65.8983Z" fill="#11112B"/>
<path id="Vector_125" d="M119.752 60.6822C113.827 39.7042 94.3249 20.8875 76.2695 18.7263L76.3148 18.2963C94.5284 20.4688 114.189 39.4327 120.159 60.5577L119.74 60.6708L119.752 60.6822Z" fill="#11112B"/>
<path id="Vector_126" d="M75.116 48.9825L74.856 48.643C84.2398 41.3336 94.6411 26.9296 102.68 10.1156L103.064 10.2966C95.0029 27.1559 84.5564 41.6164 75.116 48.9712V48.9825Z" fill="#11112B"/>
</g>
<g id="Group_55">
<path id="Vector_127" d="M112.041 104.12C110.582 104.12 109.079 104.03 107.553 103.849H107.462L107.406 103.769C101.9 96.7995 95.7945 92.9411 89.8024 92.3866C86.829 95.5435 82.431 96.9352 77.3321 96.3356L76.812 96.279L77.219 95.9622C81.1195 92.9184 85.3479 91.6059 89.6328 91.9454C89.7233 91.8548 89.8024 91.753 89.8928 91.6512C93.5785 87.3402 94.4378 80.4607 92.2671 72.7665L92.2218 72.6307L92.3349 72.5402C101.775 65.1855 118.621 59.4375 137.389 57.1745L137.569 57.1519L137.615 57.3329C141.956 72.7326 140.204 86.5368 132.787 95.2154C127.813 101.043 120.543 104.132 112.007 104.132L112.041 104.12ZM107.688 103.43C117.965 104.641 126.772 101.62 132.493 94.9212C139.785 86.3897 141.527 72.8004 137.276 57.6158C118.723 59.8788 102.103 65.5362 92.7306 72.7778C94.89 80.5512 93.9855 87.5212 90.232 91.9227C90.2094 91.9454 90.1981 91.968 90.1755 91.9793C96.145 92.6469 102.205 96.5166 107.688 103.43ZM77.9313 95.9622C82.5214 96.3808 86.4898 95.1135 89.2484 92.3414C85.3479 92.1038 81.5039 93.3031 77.9313 95.9622Z" fill="#11112B"/>
<path id="Vector_128" d="M90.0283 92.4998C89.1917 92.4998 88.3325 92.4432 87.4619 92.3414L87.5071 91.9114C93.3409 92.613 98.3381 90.9044 101.572 87.1139C105.71 82.2711 106.682 74.5316 104.251 65.887L104.669 65.7739C107.145 74.5543 106.139 82.4408 101.911 87.3967C99.0617 90.7347 94.9011 92.4998 90.0283 92.4998Z" fill="#11112B"/>
<path id="Vector_129" d="M101.154 95.2833C100.068 95.2833 98.9602 95.2154 97.8184 95.0796L97.8636 94.6496C105.484 95.5661 112.007 93.3371 116.247 88.3811C121.651 82.0561 122.929 71.9518 119.74 60.6821L120.159 60.569C123.381 71.9858 122.081 82.2258 116.575 88.664C112.878 92.9976 107.485 95.2833 101.154 95.2833Z" fill="#11112B"/>
<path id="Vector_130" d="M93.2732 85.6769L93.0132 85.3374C102.476 77.9601 119.582 76.8851 138.79 82.4747L138.666 82.8934C119.593 77.349 102.634 78.39 93.2732 85.6882V85.6769Z" fill="#11112B"/>
</g>
</g>
<path id="Vector_131" d="M129.101 98.7343L128.977 98.6551C112.9 88.268 97.7391 86.401 88.4005 93.6652L88.1404 93.3258C93.2507 89.3429 94.8109 81.6488 92.2897 72.7439C88.2422 58.4191 74.9352 45.5767 62.6119 44.0944C58.3948 43.5852 54.6752 44.4791 51.8714 46.6629L51.6113 46.3235C60.9386 39.0479 62.8719 23.8633 56.7555 5.70275L56.7103 5.55565L56.8346 5.46513C62.4875 1.06361 69.9833 -0.746779 78.4853 0.282882C103.053 3.22477 129.599 28.8079 137.649 57.3216C142.691 75.1653 139.537 90.6102 129.226 98.6551L129.101 98.7457V98.7343ZM102.216 88.8564C110.164 88.8564 119.469 92.0133 129.079 98.2025C139.152 90.2481 142.205 75.0182 137.23 57.4234C129.226 29.0681 102.849 3.6208 78.44 0.701536C70.1076 -0.294181 62.7702 1.43701 57.2077 5.72538C62.8832 22.6978 61.5718 37.1018 53.7934 44.977C56.3259 43.7323 59.3445 43.291 62.6684 43.6871C75.15 45.1806 88.6266 58.1702 92.708 72.642C94.9352 80.5399 94.0082 87.5099 90.2772 91.8888C93.7142 89.8634 97.7617 88.8677 102.227 88.8677L102.216 88.8564Z" fill="#11112B"/>
</g>
<g id="Group_56">
<g id="Group_57">
<g id="Group_58">
<path id="Vector_132" d="M66.0034 140C64.5449 140 63.0412 139.909 61.515 139.728L61.3228 139.706V139.513C61.8315 119.61 67.7897 103.317 77.2413 95.9508L77.3092 95.8943H77.3996C82.329 96.494 86.58 95.1588 89.4629 92.1377C86.6478 89.8747 85.0989 87.2609 84.9632 84.4662C84.771 80.5738 87.3374 76.4438 92.3685 72.5175L92.6173 72.3252L92.7077 72.6307C94.9237 80.4607 94.0192 87.4872 90.243 91.9114C90.1978 91.968 90.1413 92.0245 90.0961 92.0811C90.537 92.4206 91.0231 92.7487 91.5206 93.0768L91.5884 93.1221L91.611 93.2013C95.9525 108.601 94.2001 122.405 86.7835 131.084C81.8089 136.911 74.5393 140 66.0034 140ZM61.7637 139.321C71.9954 140.487 80.7688 137.477 86.4669 130.801C93.7705 122.247 95.5003 108.612 91.2267 93.3937C90.7292 93.0768 90.2543 92.7374 89.8021 92.3979C86.84 95.5209 82.4872 96.9126 77.4449 96.3355C68.1515 103.634 62.3064 119.678 61.7637 139.321ZM92.3798 73.0607C87.6314 76.8286 85.2233 80.7662 85.3928 84.4435C85.5172 87.1138 87.0209 89.6258 89.7569 91.8096C89.8134 91.753 89.8699 91.6851 89.9152 91.6285C93.5443 87.3741 94.4375 80.6191 92.3798 73.0494V73.0607Z" fill="#11112B"/>
<path id="Vector_133" d="M81.7636 135.214C75.9185 116.635 78.1005 101.122 87.5861 93.7331L87.8462 94.0725C78.5075 101.348 76.3934 116.68 82.1706 135.089L81.7636 135.214Z" fill="#11112B"/>
</g>
<g id="Group_59">
<path id="Vector_134" d="M112.04 104.12C110.582 104.12 109.078 104.03 107.552 103.849H107.462L107.405 103.769C101.899 96.7995 95.794 92.9411 89.8019 92.3866C86.8285 95.5435 82.4305 96.9352 77.3316 96.3356L76.8115 96.279L77.2185 95.9622C81.119 92.9184 85.3474 91.6059 89.6323 91.9454C89.7228 91.8548 89.8019 91.753 89.8924 91.6512C93.5781 87.3402 94.4373 80.4607 92.2666 72.7665L92.2214 72.6307L92.3344 72.5402C101.775 65.1855 118.62 59.4375 137.388 57.1745L137.569 57.1519L137.614 57.3329C141.956 72.7326 140.203 86.5368 132.787 95.2154C127.812 101.043 120.542 104.132 112.007 104.132L112.04 104.12ZM107.688 103.43C117.965 104.641 126.772 101.62 132.493 94.9212C139.785 86.3897 141.526 72.8004 137.275 57.6158C118.722 59.8788 102.103 65.5362 92.7301 72.7778C94.8895 80.5512 93.9851 87.5212 90.2315 91.9227C90.2089 91.9454 90.1976 91.968 90.175 91.9793C96.1445 92.6469 102.204 96.5166 107.688 103.43ZM77.9308 95.9622C82.521 96.3808 86.4893 95.1135 89.2479 92.3414C85.3474 92.1038 81.5034 93.3031 77.9308 95.9622Z" fill="#11112B"/>
<path id="Vector_135" d="M90.0278 92.4998C89.1912 92.4998 88.332 92.4432 87.4614 92.3414L87.5067 91.9114C93.3405 92.613 98.3376 90.9044 101.571 87.1139C105.709 82.2711 106.681 74.5316 104.251 65.887L104.669 65.7739C107.145 74.5543 106.139 82.4408 101.91 87.3967C99.0612 90.7347 94.9007 92.4998 90.0278 92.4998Z" fill="#11112B"/>
<path id="Vector_136" d="M127.891 99.4472C112.153 88.8111 97.1846 86.797 87.846 94.0725L87.5859 93.7331C97.0715 86.3331 112.233 88.3359 128.129 99.0851L127.891 99.4358V99.4472Z" fill="#11112B"/>
</g>
</g>
<path id="Vector_137" d="M79.6609 96.4713C78.9147 96.4713 78.1459 96.4261 77.3545 96.3355L76.8345 96.279L77.2415 95.9621C81.289 92.8053 85.6756 91.4814 90.2771 92.0359C90.6841 92.0811 90.7972 92.0811 90.8989 92.0811L90.9328 92.5111C90.4015 92.579 89.5422 92.8392 88.4003 93.6992C86.0374 95.5435 83.0414 96.4939 79.6609 96.4939V96.4713ZM77.9424 95.9621C81.9447 96.3355 85.4608 95.4303 88.1403 93.3371C88.7395 92.8845 89.2709 92.5903 89.7231 92.3979C85.5739 92.0245 81.6168 93.2239 77.9311 95.9621H77.9424Z" fill="#11112B"/>
</g>
<g id="Group_60">
<g id="Group_61">
<g id="Group_62">
<path id="Vector_138" d="M66.0034 140C64.5449 140 63.0412 139.909 61.515 139.728L61.3228 139.706V139.513C61.8315 119.61 67.7897 103.317 77.2413 95.9508L77.3092 95.8943H77.3996C82.329 96.494 86.58 95.1588 89.4629 92.1377C86.6478 89.8747 85.0989 87.2609 84.9632 84.4662C84.771 80.5738 87.3374 76.4438 92.3685 72.5175L92.6173 72.3252L92.7077 72.6307C94.9237 80.4607 94.0192 87.4872 90.243 91.9114C90.1978 91.968 90.1413 92.0245 90.0961 92.0811C90.537 92.4206 91.0231 92.7487 91.5206 93.0768L91.5884 93.1221L91.611 93.2013C95.9525 108.601 94.2001 122.405 86.7835 131.084C81.8089 136.911 74.5393 140 66.0034 140ZM61.7637 139.321C71.9954 140.487 80.7688 137.477 86.4669 130.801C93.7705 122.247 95.5003 108.612 91.2267 93.3937C90.7292 93.0768 90.2543 92.7374 89.8021 92.3979C86.84 95.5209 82.4872 96.9126 77.4449 96.3355C68.1515 103.634 62.3064 119.678 61.7637 139.321ZM92.3798 73.0607C87.6314 76.8286 85.2233 80.7662 85.3928 84.4435C85.5172 87.1138 87.0209 89.6258 89.7569 91.8096C89.8134 91.753 89.8699 91.6851 89.9152 91.6285C93.5443 87.3741 94.4375 80.6191 92.3798 73.0494V73.0607Z" fill="#11112B"/>
<path id="Vector_139" d="M81.7636 135.214C75.9185 116.635 78.1005 101.122 87.5861 93.7331L87.8462 94.0725C78.5075 101.348 76.3934 116.68 82.1706 135.089L81.7636 135.214Z" fill="#11112B"/>
</g>
<g id="Group_63">
<path id="Vector_140" d="M112.04 104.12C110.582 104.12 109.078 104.03 107.552 103.849H107.462L107.405 103.769C101.899 96.7995 95.794 92.9411 89.8019 92.3866C86.8285 95.5435 82.4305 96.9352 77.3316 96.3356L76.8115 96.279L77.2185 95.9622C81.119 92.9184 85.3474 91.6059 89.6323 91.9454C89.7228 91.8548 89.8019 91.753 89.8924 91.6512C93.5781 87.3402 94.4373 80.4607 92.2666 72.7665L92.2214 72.6307L92.3344 72.5402C101.775 65.1855 118.62 59.4375 137.388 57.1745L137.569 57.1519L137.614 57.3329C141.956 72.7326 140.203 86.5368 132.787 95.2154C127.812 101.043 120.542 104.132 112.007 104.132L112.04 104.12ZM107.688 103.43C117.965 104.641 126.772 101.62 132.493 94.9212C139.785 86.3897 141.526 72.8004 137.275 57.6158C118.722 59.8788 102.103 65.5362 92.7301 72.7778C94.8895 80.5512 93.9851 87.5212 90.2315 91.9227C90.2089 91.9454 90.1976 91.968 90.175 91.9793C96.1445 92.6469 102.204 96.5166 107.688 103.43ZM77.9308 95.9622C82.521 96.3808 86.4893 95.1135 89.2479 92.3414C85.3474 92.1038 81.5034 93.3031 77.9308 95.9622Z" fill="#11112B"/>
<path id="Vector_141" d="M90.0278 92.4998C89.1912 92.4998 88.332 92.4432 87.4614 92.3414L87.5067 91.9114C93.3405 92.613 98.3376 90.9044 101.571 87.1139C105.709 82.2711 106.681 74.5316 104.251 65.887L104.669 65.7739C107.145 74.5543 106.139 82.4408 101.91 87.3967C99.0612 90.7347 94.9007 92.4998 90.0278 92.4998Z" fill="#11112B"/>
<path id="Vector_142" d="M101.153 95.2833C100.068 95.2833 98.9598 95.2154 97.8179 95.0796L97.8631 94.6496C105.483 95.5661 112.007 93.3371 116.246 88.3811C121.651 82.0561 122.928 71.9518 119.74 60.6821L120.158 60.569C123.38 71.9858 122.08 82.2258 116.574 88.664C112.877 92.9976 107.484 95.2833 101.153 95.2833Z" fill="#11112B"/>
<path id="Vector_143" d="M127.891 99.4472C112.153 88.8111 97.1846 86.797 87.846 94.0725L87.5859 93.7331C97.0715 86.3331 112.233 88.3359 128.129 99.0851L127.891 99.4358V99.4472Z" fill="#11112B"/>
</g>
</g>
<path id="Vector_144" d="M112.086 104.12C110.616 104.12 109.101 104.03 107.552 103.849H107.462L107.405 103.769C102.284 97.2747 96.5291 93.405 90.7519 92.5224C89.6439 92.7487 88.7394 93.4163 88.3889 93.6765L88.1289 93.3371C97.6145 85.9484 112.968 87.8041 129.203 98.293L129.452 98.4515L129.214 98.6325C124.579 102.253 118.711 104.109 112.075 104.109L112.086 104.12ZM107.688 103.43C115.919 104.403 123.188 102.695 128.717 98.4967C114.064 89.094 100.17 86.797 90.8084 92.0698C90.8423 92.0698 90.8536 92.0698 90.8762 92.0698V92.1151C96.7326 93.0203 102.521 96.9239 107.688 103.441V103.43Z" fill="#11112B"/>
</g>
<g id="Group_64">
<g id="Group_65">
<path id="Vector_145" d="M137.242 57.4461C134.279 49.8877 122.793 44.3886 105.732 42.3406L105.585 42.318L105.551 42.1822C99.9436 22.3358 90.0397 7.19634 78.3608 0.667606L77.4111 0.135803L78.4852 0.260268C103.053 3.20216 129.599 28.7853 137.649 57.299L137.242 57.4348V57.4461ZM105.924 41.9333C121.447 43.8116 132.38 48.5638 136.552 55.1491C127.948 28.129 102.962 4.26576 79.5027 0.848646C90.8424 7.68288 100.43 22.5734 105.924 41.9446V41.9333Z" fill="#11112B"/>
<path id="Vector_146" d="M105.879 42.3066L105.642 41.9559C123.38 29.6905 123.912 30.1544 124.161 30.3354C124.194 30.3694 124.319 30.4825 124.24 30.6975L123.844 30.5391C123.844 30.5391 123.844 30.5957 123.878 30.6409C123.912 30.6862 123.957 30.6975 123.968 30.6975C123.663 30.6975 121.436 31.5688 105.913 42.3066H105.879Z" fill="#11112B"/>
</g>
<path id="Vector_147" d="M134.505 49.503C133.906 48.0886 133.137 46.3574 132.448 44.8865C127.462 34.5899 120.147 24.9269 111.543 17.2327C109.746 15.7052 107.439 13.8269 105.574 12.3673L105.834 12.0278C107.891 13.544 109.893 15.1734 111.826 16.9046C112.086 17.1196 112.323 17.3345 112.561 17.5382C113.375 18.2397 114.347 19.2015 115.206 20.0388C115.489 20.3217 115.76 20.5933 116.02 20.8422C118.033 22.7997 121.108 26.3526 122.793 28.525C124.059 30.1544 125.721 32.4966 127.858 35.6874C128.457 36.5926 129.146 37.7694 129.746 38.8103L130.141 39.4892C130.82 40.6434 131.701 42.3067 132.335 43.6192C132.493 43.9586 132.674 44.3207 132.855 44.7054C133.601 46.2443 134.291 47.7831 134.924 49.3446L134.528 49.5143L134.505 49.503Z" fill="#11112B"/>
</g>
<g id="Group_66">
<g id="Group_67">
<g id="Group_68">
<path id="Vector_148" d="M107.745 103.871L107.552 103.849C82.9849 100.907 56.4388 75.3237 48.389 46.81L48.3325 46.595L48.5473 46.5384C67.7446 41.5485 88.6152 39.8626 105.777 41.9219L105.924 41.9446L105.958 42.0803C111.589 62.0173 112.256 84.4775 107.779 103.679L107.733 103.871H107.745ZM48.8639 46.9118C56.9249 75.1087 83.1092 100.386 107.405 103.407C111.803 84.353 111.136 62.1191 105.585 42.3406C88.5586 40.3265 67.9029 41.9898 48.8639 46.9118Z" fill="#11112B"/>
<path id="Vector_149" d="M110.288 84.3078C92.4931 82.1806 73.2732 63.658 67.4507 43.0082L67.869 42.895C73.6576 63.3864 92.7079 81.7732 110.345 83.8778L110.3 84.3078H110.288Z" fill="#11112B"/>
<path id="Vector_150" d="M109.757 63.3864C100.272 62.2549 90.0173 52.3769 86.9082 41.3675L87.3265 41.2543C90.3904 52.1054 100.475 61.8476 109.814 62.9564L109.769 63.3864H109.757Z" fill="#11112B"/>
<path id="Vector_151" d="M83.3579 94.0273L82.9961 93.801C93.5331 77.0662 101.752 58.2268 105.551 42.0917L105.97 42.1935C102.159 58.3739 93.9175 77.2699 83.3579 94.0273Z" fill="#11112B"/>
</g>
<g id="Group_69">
<path id="Vector_152" d="M48.4566 47.0137L48.4001 46.81C44.0586 31.4103 45.811 17.6061 53.2277 8.92751C59.0502 2.09328 68.027 -0.973076 78.4849 0.282885L78.564 0.305515C90.3334 6.89082 100.328 22.1208 105.958 42.0803L106.048 42.3858L105.732 42.3519C88.6149 40.3039 67.8122 41.9898 48.6601 46.9571L48.4566 47.0137ZM74.0078 0.429979C65.5962 0.429979 58.4396 3.4737 53.5442 9.19907C46.2633 17.7306 44.5109 31.3085 48.7505 46.4819C67.7782 41.5599 88.4114 39.8852 105.461 41.8767C99.8529 22.2 89.9942 7.19632 78.3944 0.690223C76.902 0.509184 75.4323 0.429979 73.9964 0.429979H74.0078Z" fill="#11112B"/>
<path id="Vector_153" d="M67.4503 43.0081C64.296 31.8516 65.5736 21.8492 70.9551 15.5581C75.1835 10.6021 81.6957 8.37305 89.2819 9.27825L89.2366 9.70822C81.7974 8.82565 75.4209 10.9981 71.283 15.8296C66.0032 22.0076 64.7595 31.8742 67.8686 42.8837L67.4503 42.9968V43.0081Z" fill="#11112B"/>
<path id="Vector_154" d="M86.9076 41.3788C85.2231 35.4158 85.9127 30.0639 88.7844 26.7033C91.0569 24.0443 94.5391 22.8449 98.6092 23.3315L98.5639 23.7614C94.6408 23.2862 91.283 24.4403 89.1123 26.9862C86.331 30.2449 85.6753 35.4498 87.3147 41.2657L86.8963 41.3788H86.9076Z" fill="#11112B"/>
<path id="Vector_155" d="M105.642 42.318C88.0273 30.5165 66.7723 22.992 47.3037 21.6682L47.3376 21.2382C66.8741 22.5734 88.2082 30.1205 105.879 41.9672L105.642 42.3293V42.318Z" fill="#11112B"/>
<path id="Vector_156" d="M105.585 42.2614C92.1084 24.0782 74.754 10.5116 57.9648 5.05779L58.1005 4.65045C74.9688 10.1382 92.4024 23.7501 105.935 42.0124L105.596 42.2727L105.585 42.2614Z" fill="#11112B"/>
</g>
<g id="Group_70">
<path id="Vector_157" d="M137.242 57.4461C134.279 49.8877 122.793 44.3886 105.732 42.3406L105.585 42.318L105.551 42.1822C99.9436 22.3358 90.0397 7.19634 78.3608 0.667606L77.4111 0.135803L78.4852 0.260268C103.053 3.20216 129.599 28.7853 137.649 57.299L137.242 57.4348V57.4461ZM105.924 41.9333C121.447 43.8116 132.38 48.5638 136.552 55.1491C127.948 28.129 102.962 4.26576 79.5027 0.848646C90.8424 7.68288 100.43 22.5734 105.924 41.9446V41.9333Z" fill="#11112B"/>
<path id="Vector_158" d="M131.702 50.6911C125.913 30.1997 106.863 11.8129 89.2256 9.70829L89.2708 9.27832C107.066 11.4055 126.286 29.9281 132.109 50.5779L131.69 50.6911H131.702Z" fill="#11112B"/>
<path id="Vector_159" d="M121.052 45.4635C117.988 34.6125 107.903 24.8703 98.5645 23.7614L98.6097 23.3315C108.107 24.463 118.35 34.3409 121.459 45.3504L121.04 45.4635H121.052Z" fill="#11112B"/>
<path id="Vector_160" d="M105.97 42.1822L105.551 42.0804C109.328 26.0131 108.31 14.4606 102.748 10.3758L102.996 10.0251C108.706 14.2116 109.791 25.9226 105.958 42.1709L105.97 42.1822Z" fill="#11112B"/>
</g>
<g id="Group_71">
<path id="Vector_161" d="M112.04 104.12C110.582 104.12 109.078 104.03 107.552 103.849L107.315 103.815L107.371 103.577C111.826 84.4322 111.159 62.0626 105.551 42.1935L105.46 41.888L105.777 41.9219C123.007 43.9813 134.618 49.5822 137.637 57.299V57.3216C141.99 72.7213 140.237 86.5255 132.821 95.2041C127.846 101.031 120.576 104.12 112.04 104.12ZM107.835 103.453C118.055 104.618 126.806 101.586 132.493 94.9212C139.808 86.3558 141.537 72.6986 137.23 57.4461C134.279 49.9443 122.928 44.4565 106.037 42.3972C111.566 62.1757 112.21 84.3983 107.823 103.453H107.835Z" fill="#11112B"/>
<path id="Vector_162" d="M113.544 84.5002C112.481 84.5002 111.396 84.4323 110.288 84.3078L110.333 83.8778C117.784 84.7717 124.149 82.5879 128.287 77.7565C133.567 71.5785 134.81 61.7118 131.701 50.7024L132.12 50.5892C135.274 61.7458 133.996 71.7482 128.615 78.0393C125.008 82.2711 119.728 84.5115 113.544 84.5115V84.5002Z" fill="#11112B"/>
<path id="Vector_163" d="M111.498 63.4996C110.933 63.4996 110.356 63.4656 109.757 63.3978L109.802 62.9678C113.725 63.4317 117.083 62.2889 119.254 59.743C122.035 56.4843 122.691 51.2794 121.051 45.4636L121.47 45.3504C123.154 51.3134 122.465 56.6654 119.593 60.0259C117.66 62.3002 114.822 63.4996 111.509 63.4996H111.498Z" fill="#11112B"/>
<path id="Vector_164" d="M138.518 82.7237C135.217 68.8289 123.233 54.0968 105.641 42.3067L105.879 41.9446C123.561 53.7913 135.613 68.6139 138.937 82.6105L138.518 82.7124V82.7237Z" fill="#11112B"/>
<path id="Vector_165" d="M127.801 99.2775C127.168 81.2301 119.073 60.4445 105.585 42.2614L105.924 42.0012C119.457 60.2522 127.586 81.1283 128.219 99.2549H127.79L127.801 99.2775Z" fill="#11112B"/>
</g>
</g>
<path id="Vector_166" d="M112.041 104.12C110.639 104.12 109.203 104.041 107.744 103.871L107.315 103.815C82.8151 100.737 56.416 75.2219 48.3888 46.81C44.0474 31.4103 45.7998 17.6061 53.2164 8.92751C59.0502 2.09328 68.0271 -0.973076 78.4849 0.282885C87.3939 1.34649 96.8343 5.40856 105.811 12.0278C107.089 12.9783 108.536 14.0645 109.587 14.981C109.87 15.2186 110.164 15.4789 110.48 15.7504C111.294 16.452 112.222 17.244 112.934 17.9003C113.669 18.5792 114.573 19.4504 115.365 20.2312L116.077 20.9214C118.745 23.5125 121.662 27.1333 122.759 28.5024C124.409 30.5617 125.065 31.5574 127.835 35.6987C128.445 36.6152 129.146 37.8259 129.757 38.8895L130.209 39.6589C131.17 41.3109 132.301 43.6192 133.081 45.2146C133.476 46.0406 133.917 47.0589 134.336 48.032C134.528 48.4959 134.72 48.9372 134.901 49.3332C135.986 51.9809 136.913 54.6626 137.66 57.3103C142.001 72.7099 140.249 86.5142 132.832 95.1928C127.857 101.02 120.588 104.109 112.052 104.109L112.041 104.12ZM107.835 103.453C118.055 104.618 126.806 101.586 132.493 94.9212C139.808 86.3558 141.538 72.6873 137.23 57.4347C136.484 54.7984 135.568 52.128 134.494 49.503C134.324 49.1069 134.132 48.6656 133.94 48.2017C133.522 47.2286 133.092 46.2216 132.696 45.3956C131.928 43.8115 130.797 41.5033 129.847 39.8626L129.395 39.0932C128.785 38.0409 128.095 36.8415 127.484 35.925C124.726 31.795 124.07 30.8106 122.431 28.774C121.334 27.4048 118.428 23.7954 115.783 21.2269L115.071 20.5367C114.279 19.7672 113.386 18.8847 112.651 18.2171C111.939 17.5721 111.023 16.7801 110.209 16.0786C109.893 15.807 109.587 15.5468 109.316 15.3092C108.264 14.3926 106.761 13.2611 105.562 12.3786C96.6534 5.80458 87.2696 1.76514 78.4397 0.712853C68.1175 -0.520477 59.2763 2.50062 53.5443 9.21039C46.2294 17.7758 44.4996 31.4443 48.8072 46.6968C56.7891 74.9842 83.0525 100.375 107.417 103.396C111.826 84.2965 111.147 62.006 105.551 42.1935L105.969 42.0803C106.003 42.1822 106.026 42.2953 106.06 42.3972C106.06 42.3972 106.082 42.4764 106.094 42.5216C111.588 62.2662 112.222 84.4322 107.846 103.441L107.835 103.453Z" fill="#11112B"/>
</g>
</g>
</g>
<defs>
<clipPath id="clip0_75_1353">
<rect width="140" height="140" fill="white"/>
</clipPath>
</defs>
</svg>
